%FSLAX34Y34*%
G04 Gerber Fmt 3.4, Leading zero omitted, Abs format*
G04 (created by PCBNEW (2014-03-14 BZR 4750)-product) date Tue 18 Mar 2014 12:24:21 AM CET*
%MOIN*%
G01*
G70*
G90*
G04 APERTURE LIST*
%ADD10C,0.005906*%
%ADD11C,0.009843*%
%ADD12C,0.007874*%
%ADD13R,0.064961X0.064961*%
%ADD14C,0.040000*%
G04 APERTURE END LIST*
G54D10*
G54D11*
X62957Y-41401D02*
X63088Y-41795D01*
X63219Y-41401D01*
X63425Y-41401D02*
X63463Y-41401D01*
X63500Y-41420D01*
X63519Y-41439D01*
X63538Y-41476D01*
X63557Y-41551D01*
X63557Y-41645D01*
X63538Y-41720D01*
X63519Y-41757D01*
X63500Y-41776D01*
X63463Y-41795D01*
X63425Y-41795D01*
X63388Y-41776D01*
X63369Y-41757D01*
X63350Y-41720D01*
X63332Y-41645D01*
X63332Y-41551D01*
X63350Y-41476D01*
X63369Y-41439D01*
X63388Y-41420D01*
X63425Y-41401D01*
X63725Y-41757D02*
X63744Y-41776D01*
X63725Y-41795D01*
X63707Y-41776D01*
X63725Y-41757D01*
X63725Y-41795D01*
X64119Y-41795D02*
X63894Y-41795D01*
X64007Y-41795D02*
X64007Y-41401D01*
X63969Y-41457D01*
X63932Y-41495D01*
X63894Y-41514D01*
X64363Y-41401D02*
X64400Y-41401D01*
X64438Y-41420D01*
X64457Y-41439D01*
X64475Y-41476D01*
X64494Y-41551D01*
X64494Y-41645D01*
X64475Y-41720D01*
X64457Y-41757D01*
X64438Y-41776D01*
X64400Y-41795D01*
X64363Y-41795D01*
X64325Y-41776D01*
X64307Y-41757D01*
X64288Y-41720D01*
X64269Y-41645D01*
X64269Y-41551D01*
X64288Y-41476D01*
X64307Y-41439D01*
X64325Y-41420D01*
X64363Y-41401D01*
X64663Y-41757D02*
X64682Y-41776D01*
X64663Y-41795D01*
X64644Y-41776D01*
X64663Y-41757D01*
X64663Y-41795D01*
X64850Y-41795D02*
X64850Y-41401D01*
X64850Y-41551D02*
X64888Y-41532D01*
X64963Y-41532D01*
X65000Y-41551D01*
X65019Y-41570D01*
X65038Y-41607D01*
X65038Y-41720D01*
X65019Y-41757D01*
X65000Y-41776D01*
X64963Y-41795D01*
X64888Y-41795D01*
X64850Y-41776D01*
X63287Y-37713D02*
X63017Y-37713D01*
X63152Y-37713D02*
X63152Y-37241D01*
X63107Y-37308D01*
X63062Y-37353D01*
X63017Y-37376D01*
X63580Y-37241D02*
X63625Y-37241D01*
X63670Y-37263D01*
X63692Y-37286D01*
X63715Y-37331D01*
X63737Y-37421D01*
X63737Y-37533D01*
X63715Y-37623D01*
X63692Y-37668D01*
X63670Y-37691D01*
X63625Y-37713D01*
X63580Y-37713D01*
X63535Y-37691D01*
X63512Y-37668D01*
X63490Y-37623D01*
X63467Y-37533D01*
X63467Y-37421D01*
X63490Y-37331D01*
X63512Y-37286D01*
X63535Y-37263D01*
X63580Y-37241D01*
X63939Y-37668D02*
X63962Y-37691D01*
X63939Y-37713D01*
X63917Y-37691D01*
X63939Y-37668D01*
X63939Y-37713D01*
X64164Y-37668D02*
X64187Y-37691D01*
X64164Y-37713D01*
X64142Y-37691D01*
X64164Y-37668D01*
X64164Y-37713D01*
X64389Y-37668D02*
X64412Y-37691D01*
X64389Y-37713D01*
X64367Y-37691D01*
X64389Y-37668D01*
X64389Y-37713D01*
X64817Y-37241D02*
X64727Y-37241D01*
X64682Y-37263D01*
X64659Y-37286D01*
X64614Y-37353D01*
X64592Y-37443D01*
X64592Y-37623D01*
X64614Y-37668D01*
X64637Y-37691D01*
X64682Y-37713D01*
X64772Y-37713D01*
X64817Y-37691D01*
X64839Y-37668D01*
X64862Y-37623D01*
X64862Y-37511D01*
X64839Y-37466D01*
X64817Y-37443D01*
X64772Y-37421D01*
X64682Y-37421D01*
X64637Y-37443D01*
X64614Y-37466D01*
X64592Y-37511D01*
X63572Y-42723D02*
X63302Y-42723D01*
X63437Y-42723D02*
X63437Y-42251D01*
X63392Y-42318D01*
X63347Y-42363D01*
X63302Y-42386D01*
X63775Y-42678D02*
X63797Y-42701D01*
X63775Y-42723D01*
X63752Y-42701D01*
X63775Y-42678D01*
X63775Y-42723D01*
X64000Y-42678D02*
X64022Y-42701D01*
X64000Y-42723D01*
X63977Y-42701D01*
X64000Y-42678D01*
X64000Y-42723D01*
X64224Y-42678D02*
X64247Y-42701D01*
X64224Y-42723D01*
X64202Y-42701D01*
X64224Y-42678D01*
X64224Y-42723D01*
X64674Y-42251D02*
X64449Y-42251D01*
X64427Y-42476D01*
X64449Y-42453D01*
X64494Y-42431D01*
X64607Y-42431D01*
X64652Y-42453D01*
X64674Y-42476D01*
X64697Y-42521D01*
X64697Y-42633D01*
X64674Y-42678D01*
X64652Y-42701D01*
X64607Y-42723D01*
X64494Y-42723D01*
X64449Y-42701D01*
X64427Y-42678D01*
G54D12*
X63195Y-40890D02*
G75*
G03X63195Y-40890I-85J0D01*
G74*
G01*
G54D11*
X61673Y-38462D02*
X61823Y-38462D01*
X61729Y-38330D02*
X61729Y-38668D01*
X61748Y-38705D01*
X61785Y-38724D01*
X61823Y-38724D01*
X62160Y-38724D02*
X61935Y-38724D01*
X62048Y-38724D02*
X62048Y-38330D01*
X62010Y-38387D01*
X61973Y-38424D01*
X61935Y-38443D01*
X62291Y-38330D02*
X62535Y-38330D01*
X62404Y-38480D01*
X62460Y-38480D01*
X62497Y-38499D01*
X62516Y-38518D01*
X62535Y-38555D01*
X62535Y-38649D01*
X62516Y-38687D01*
X62497Y-38705D01*
X62460Y-38724D01*
X62347Y-38724D01*
X62310Y-38705D01*
X62291Y-38687D01*
X62704Y-38574D02*
X63004Y-38574D01*
X63191Y-38724D02*
X63191Y-38330D01*
X63285Y-38330D01*
X63341Y-38349D01*
X63379Y-38387D01*
X63397Y-38424D01*
X63416Y-38499D01*
X63416Y-38555D01*
X63397Y-38630D01*
X63379Y-38668D01*
X63341Y-38705D01*
X63285Y-38724D01*
X63191Y-38724D01*
X63716Y-38518D02*
X63585Y-38518D01*
X63585Y-38724D02*
X63585Y-38330D01*
X63772Y-38330D01*
X63922Y-38724D02*
X63922Y-38330D01*
X64147Y-38724D01*
X64147Y-38330D01*
X64541Y-38724D02*
X64316Y-38724D01*
X64428Y-38724D02*
X64428Y-38330D01*
X64391Y-38387D01*
X64353Y-38424D01*
X64316Y-38443D01*
X64785Y-38330D02*
X64822Y-38330D01*
X64860Y-38349D01*
X64878Y-38368D01*
X64897Y-38405D01*
X64916Y-38480D01*
X64916Y-38574D01*
X64897Y-38649D01*
X64878Y-38687D01*
X64860Y-38705D01*
X64822Y-38724D01*
X64785Y-38724D01*
X64747Y-38705D01*
X64728Y-38687D01*
X64710Y-38649D01*
X64691Y-38574D01*
X64691Y-38480D01*
X64710Y-38405D01*
X64728Y-38368D01*
X64747Y-38349D01*
X64785Y-38330D01*
X65385Y-38724D02*
X65385Y-38330D01*
X65535Y-38330D01*
X65572Y-38349D01*
X65591Y-38368D01*
X65610Y-38405D01*
X65610Y-38462D01*
X65591Y-38499D01*
X65572Y-38518D01*
X65535Y-38537D01*
X65385Y-38537D01*
X65778Y-38687D02*
X65797Y-38705D01*
X65778Y-38724D01*
X65760Y-38705D01*
X65778Y-38687D01*
X65778Y-38724D01*
X65947Y-38612D02*
X66135Y-38612D01*
X65910Y-38724D02*
X66041Y-38330D01*
X66172Y-38724D01*
X66303Y-38687D02*
X66322Y-38705D01*
X66303Y-38724D01*
X66285Y-38705D01*
X66303Y-38687D01*
X66303Y-38724D01*
G54D12*
X61500Y-36800D02*
X66500Y-36800D01*
X66500Y-36800D02*
X66500Y-43200D01*
X66500Y-43200D02*
X61500Y-43200D01*
X61500Y-43200D02*
X61500Y-36800D01*
X63409Y-40590D02*
X63409Y-39409D01*
X63409Y-39409D02*
X64590Y-39409D01*
X64590Y-39409D02*
X64590Y-40590D01*
X64590Y-40590D02*
X63409Y-40590D01*
X61500Y-43000D02*
X62500Y-43000D01*
X61500Y-42000D02*
X62500Y-42000D01*
X62500Y-42000D02*
X62500Y-43000D01*
X61500Y-43000D02*
X61500Y-42000D01*
%LPC*%
G54D13*
X66000Y-42500D03*
X66000Y-37500D03*
X62000Y-37500D03*
G54D14*
X63410Y-40590D03*
X64590Y-40590D03*
X64590Y-39410D03*
X63410Y-39410D03*
G54D13*
X62000Y-42500D03*
M02*
