%FSLAX34Y34*%
G04 Gerber Fmt 3.4, Leading zero omitted, Abs format*
G04 (created by PCBNEW (2014-04-04 BZR 4786)-product) date Sun 06 Apr 2014 03:41:04 AM CEST*
%MOIN*%
G01*
G70*
G90*
G04 APERTURE LIST*
%ADD10C,0.005906*%
%ADD11C,0.003937*%
G04 APERTURE END LIST*
G54D10*
G54D11*
X63576Y-40620D02*
X64423Y-40620D01*
X63379Y-39576D02*
X63379Y-40423D01*
X64423Y-39379D02*
X63576Y-39379D01*
X64620Y-40423D02*
X64620Y-39576D01*
X64423Y-40620D02*
G75*
G03X64620Y-40423I0J196D01*
G74*
G01*
X63379Y-40423D02*
G75*
G03X63576Y-40620I196J0D01*
G74*
G01*
X63576Y-39379D02*
G75*
G03X63379Y-39576I0J-196D01*
G74*
G01*
X64620Y-39576D02*
G75*
G03X64423Y-39379I-196J0D01*
G74*
G01*
X62596Y-45963D02*
X62840Y-45963D01*
X62709Y-46113D01*
X62765Y-46113D01*
X62802Y-46132D01*
X62821Y-46151D01*
X62840Y-46188D01*
X62840Y-46282D01*
X62821Y-46319D01*
X62802Y-46338D01*
X62765Y-46357D01*
X62652Y-46357D01*
X62615Y-46338D01*
X62596Y-46319D01*
X63009Y-46319D02*
X63027Y-46338D01*
X63009Y-46357D01*
X62990Y-46338D01*
X63009Y-46319D01*
X63009Y-46357D01*
X63402Y-46357D02*
X63177Y-46357D01*
X63290Y-46357D02*
X63290Y-45963D01*
X63252Y-46019D01*
X63215Y-46057D01*
X63177Y-46076D01*
X63759Y-45963D02*
X63571Y-45963D01*
X63552Y-46151D01*
X63571Y-46132D01*
X63609Y-46113D01*
X63702Y-46113D01*
X63740Y-46132D01*
X63759Y-46151D01*
X63777Y-46188D01*
X63777Y-46282D01*
X63759Y-46319D01*
X63740Y-46338D01*
X63702Y-46357D01*
X63609Y-46357D01*
X63571Y-46338D01*
X63552Y-46319D01*
X64021Y-45963D02*
X64059Y-45963D01*
X64096Y-45982D01*
X64115Y-46001D01*
X64134Y-46038D01*
X64152Y-46113D01*
X64152Y-46207D01*
X64134Y-46282D01*
X64115Y-46319D01*
X64096Y-46338D01*
X64059Y-46357D01*
X64021Y-46357D01*
X63984Y-46338D01*
X63965Y-46319D01*
X63946Y-46282D01*
X63927Y-46207D01*
X63927Y-46113D01*
X63946Y-46038D01*
X63965Y-46001D01*
X63984Y-45982D01*
X64021Y-45963D01*
X64621Y-46357D02*
X64621Y-46094D01*
X64621Y-46132D02*
X64640Y-46113D01*
X64677Y-46094D01*
X64733Y-46094D01*
X64771Y-46113D01*
X64790Y-46151D01*
X64790Y-46357D01*
X64790Y-46151D02*
X64808Y-46113D01*
X64846Y-46094D01*
X64902Y-46094D01*
X64940Y-46113D01*
X64958Y-46151D01*
X64958Y-46357D01*
X65146Y-46357D02*
X65146Y-46094D01*
X65146Y-46132D02*
X65165Y-46113D01*
X65202Y-46094D01*
X65258Y-46094D01*
X65296Y-46113D01*
X65315Y-46151D01*
X65315Y-46357D01*
X65315Y-46151D02*
X65333Y-46113D01*
X65371Y-46094D01*
X65427Y-46094D01*
X65465Y-46113D01*
X65483Y-46151D01*
X65483Y-46357D01*
X63379Y-44659D02*
X64620Y-44659D01*
X63379Y-40679D02*
X63379Y-45722D01*
X64620Y-40679D02*
X64620Y-45722D01*
X64620Y-44659D02*
X64176Y-44890D01*
X64620Y-44659D02*
X64176Y-44428D01*
X63379Y-44659D02*
X63823Y-44890D01*
X63379Y-44659D02*
X63823Y-44428D01*
X60669Y-47079D02*
X60669Y-47173D01*
X60575Y-47135D02*
X60669Y-47173D01*
X60763Y-47135D01*
X60613Y-47248D02*
X60669Y-47173D01*
X60725Y-47248D01*
X61213Y-47473D02*
X61213Y-47210D01*
X61213Y-47285D02*
X61232Y-47248D01*
X61250Y-47229D01*
X61288Y-47210D01*
X61325Y-47210D01*
X61513Y-47473D02*
X61475Y-47454D01*
X61457Y-47435D01*
X61438Y-47398D01*
X61438Y-47285D01*
X61457Y-47248D01*
X61475Y-47229D01*
X61513Y-47210D01*
X61569Y-47210D01*
X61607Y-47229D01*
X61625Y-47248D01*
X61644Y-47285D01*
X61644Y-47398D01*
X61625Y-47435D01*
X61607Y-47454D01*
X61569Y-47473D01*
X61513Y-47473D01*
X61982Y-47210D02*
X61982Y-47473D01*
X61813Y-47210D02*
X61813Y-47417D01*
X61832Y-47454D01*
X61869Y-47473D01*
X61925Y-47473D01*
X61963Y-47454D01*
X61982Y-47435D01*
X62113Y-47210D02*
X62263Y-47210D01*
X62169Y-47079D02*
X62169Y-47417D01*
X62188Y-47454D01*
X62225Y-47473D01*
X62263Y-47473D01*
X62394Y-47473D02*
X62394Y-47210D01*
X62394Y-47079D02*
X62375Y-47098D01*
X62394Y-47117D01*
X62413Y-47098D01*
X62394Y-47079D01*
X62394Y-47117D01*
X62581Y-47210D02*
X62581Y-47473D01*
X62581Y-47248D02*
X62600Y-47229D01*
X62638Y-47210D01*
X62694Y-47210D01*
X62731Y-47229D01*
X62750Y-47267D01*
X62750Y-47473D01*
X63106Y-47210D02*
X63106Y-47529D01*
X63088Y-47567D01*
X63069Y-47585D01*
X63031Y-47604D01*
X62975Y-47604D01*
X62938Y-47585D01*
X63106Y-47454D02*
X63069Y-47473D01*
X62994Y-47473D01*
X62956Y-47454D01*
X62938Y-47435D01*
X62919Y-47398D01*
X62919Y-47285D01*
X62938Y-47248D01*
X62956Y-47229D01*
X62994Y-47210D01*
X63069Y-47210D01*
X63106Y-47229D01*
X63594Y-47473D02*
X63594Y-47079D01*
X63594Y-47229D02*
X63631Y-47210D01*
X63706Y-47210D01*
X63744Y-47229D01*
X63763Y-47248D01*
X63781Y-47285D01*
X63781Y-47398D01*
X63763Y-47435D01*
X63744Y-47454D01*
X63706Y-47473D01*
X63631Y-47473D01*
X63594Y-47454D01*
X63950Y-47473D02*
X63950Y-47210D01*
X63950Y-47079D02*
X63931Y-47098D01*
X63950Y-47117D01*
X63969Y-47098D01*
X63950Y-47079D01*
X63950Y-47117D01*
X64081Y-47210D02*
X64231Y-47210D01*
X64137Y-47079D02*
X64137Y-47417D01*
X64156Y-47454D01*
X64194Y-47473D01*
X64231Y-47473D01*
X64362Y-47435D02*
X64381Y-47454D01*
X64362Y-47473D01*
X64344Y-47454D01*
X64362Y-47435D01*
X64362Y-47473D01*
X64362Y-47229D02*
X64381Y-47248D01*
X64362Y-47267D01*
X64344Y-47248D01*
X64362Y-47229D01*
X64362Y-47267D01*
X65056Y-47473D02*
X64831Y-47473D01*
X64944Y-47473D02*
X64944Y-47079D01*
X64906Y-47135D01*
X64869Y-47173D01*
X64831Y-47192D01*
X65225Y-47435D02*
X65244Y-47454D01*
X65225Y-47473D01*
X65206Y-47454D01*
X65225Y-47435D01*
X65225Y-47473D01*
X65487Y-47079D02*
X65525Y-47079D01*
X65562Y-47098D01*
X65581Y-47117D01*
X65600Y-47154D01*
X65619Y-47229D01*
X65619Y-47323D01*
X65600Y-47398D01*
X65581Y-47435D01*
X65562Y-47454D01*
X65525Y-47473D01*
X65487Y-47473D01*
X65450Y-47454D01*
X65431Y-47435D01*
X65412Y-47398D01*
X65394Y-47323D01*
X65394Y-47229D01*
X65412Y-47154D01*
X65431Y-47117D01*
X65450Y-47098D01*
X65487Y-47079D01*
X65862Y-47079D02*
X65900Y-47079D01*
X65937Y-47098D01*
X65956Y-47117D01*
X65975Y-47154D01*
X65994Y-47229D01*
X65994Y-47323D01*
X65975Y-47398D01*
X65956Y-47435D01*
X65937Y-47454D01*
X65900Y-47473D01*
X65862Y-47473D01*
X65825Y-47454D01*
X65806Y-47435D01*
X65787Y-47398D01*
X65769Y-47323D01*
X65769Y-47229D01*
X65787Y-47154D01*
X65806Y-47117D01*
X65825Y-47098D01*
X65862Y-47079D01*
X66162Y-47473D02*
X66162Y-47210D01*
X66162Y-47248D02*
X66181Y-47229D01*
X66218Y-47210D01*
X66275Y-47210D01*
X66312Y-47229D01*
X66331Y-47267D01*
X66331Y-47473D01*
X66331Y-47267D02*
X66350Y-47229D01*
X66387Y-47210D01*
X66443Y-47210D01*
X66481Y-47229D01*
X66500Y-47267D01*
X66500Y-47473D01*
X66687Y-47473D02*
X66687Y-47210D01*
X66687Y-47248D02*
X66706Y-47229D01*
X66743Y-47210D01*
X66800Y-47210D01*
X66837Y-47229D01*
X66856Y-47267D01*
X66856Y-47473D01*
X66856Y-47267D02*
X66875Y-47229D01*
X66912Y-47210D01*
X66968Y-47210D01*
X67006Y-47229D01*
X67025Y-47267D01*
X67025Y-47473D01*
X60669Y-47670D02*
X60669Y-47763D01*
X60575Y-47726D02*
X60669Y-47763D01*
X60763Y-47726D01*
X60613Y-47838D02*
X60669Y-47763D01*
X60725Y-47838D01*
X61213Y-48063D02*
X61213Y-47801D01*
X61213Y-47876D02*
X61232Y-47838D01*
X61250Y-47820D01*
X61288Y-47801D01*
X61325Y-47801D01*
X61513Y-48063D02*
X61475Y-48045D01*
X61457Y-48026D01*
X61438Y-47988D01*
X61438Y-47876D01*
X61457Y-47838D01*
X61475Y-47820D01*
X61513Y-47801D01*
X61569Y-47801D01*
X61607Y-47820D01*
X61625Y-47838D01*
X61644Y-47876D01*
X61644Y-47988D01*
X61625Y-48026D01*
X61607Y-48045D01*
X61569Y-48063D01*
X61513Y-48063D01*
X61982Y-47801D02*
X61982Y-48063D01*
X61813Y-47801D02*
X61813Y-48007D01*
X61832Y-48045D01*
X61869Y-48063D01*
X61925Y-48063D01*
X61963Y-48045D01*
X61982Y-48026D01*
X62113Y-47801D02*
X62263Y-47801D01*
X62169Y-47670D02*
X62169Y-48007D01*
X62188Y-48045D01*
X62225Y-48063D01*
X62263Y-48063D01*
X62544Y-48045D02*
X62506Y-48063D01*
X62431Y-48063D01*
X62394Y-48045D01*
X62375Y-48007D01*
X62375Y-47857D01*
X62394Y-47820D01*
X62431Y-47801D01*
X62506Y-47801D01*
X62544Y-47820D01*
X62563Y-47857D01*
X62563Y-47895D01*
X62375Y-47932D01*
X62900Y-48063D02*
X62900Y-47670D01*
X62900Y-48045D02*
X62863Y-48063D01*
X62788Y-48063D01*
X62750Y-48045D01*
X62731Y-48026D01*
X62713Y-47988D01*
X62713Y-47876D01*
X62731Y-47838D01*
X62750Y-47820D01*
X62788Y-47801D01*
X62863Y-47801D01*
X62900Y-47820D01*
X63444Y-48063D02*
X63406Y-48045D01*
X63388Y-48026D01*
X63369Y-47988D01*
X63369Y-47876D01*
X63388Y-47838D01*
X63406Y-47820D01*
X63444Y-47801D01*
X63500Y-47801D01*
X63538Y-47820D01*
X63556Y-47838D01*
X63575Y-47876D01*
X63575Y-47988D01*
X63556Y-48026D01*
X63538Y-48045D01*
X63500Y-48063D01*
X63444Y-48063D01*
X63913Y-47801D02*
X63913Y-48063D01*
X63744Y-47801D02*
X63744Y-48007D01*
X63763Y-48045D01*
X63800Y-48063D01*
X63856Y-48063D01*
X63894Y-48045D01*
X63913Y-48026D01*
X64044Y-47801D02*
X64194Y-47801D01*
X64100Y-47670D02*
X64100Y-48007D01*
X64119Y-48045D01*
X64156Y-48063D01*
X64194Y-48063D01*
X64569Y-47801D02*
X64719Y-47801D01*
X64625Y-47670D02*
X64625Y-48007D01*
X64644Y-48045D01*
X64681Y-48063D01*
X64719Y-48063D01*
X64906Y-48063D02*
X64869Y-48045D01*
X64850Y-48026D01*
X64831Y-47988D01*
X64831Y-47876D01*
X64850Y-47838D01*
X64869Y-47820D01*
X64906Y-47801D01*
X64962Y-47801D01*
X65000Y-47820D01*
X65019Y-47838D01*
X65037Y-47876D01*
X65037Y-47988D01*
X65019Y-48026D01*
X65000Y-48045D01*
X64962Y-48063D01*
X64906Y-48063D01*
X65675Y-48045D02*
X65637Y-48063D01*
X65562Y-48063D01*
X65525Y-48045D01*
X65506Y-48026D01*
X65487Y-47988D01*
X65487Y-47876D01*
X65506Y-47838D01*
X65525Y-47820D01*
X65562Y-47801D01*
X65637Y-47801D01*
X65675Y-47820D01*
X65994Y-48045D02*
X65956Y-48063D01*
X65881Y-48063D01*
X65844Y-48045D01*
X65825Y-48007D01*
X65825Y-47857D01*
X65844Y-47820D01*
X65881Y-47801D01*
X65956Y-47801D01*
X65994Y-47820D01*
X66012Y-47857D01*
X66012Y-47895D01*
X65825Y-47932D01*
X66181Y-47801D02*
X66181Y-48063D01*
X66181Y-47838D02*
X66200Y-47820D01*
X66237Y-47801D01*
X66293Y-47801D01*
X66331Y-47820D01*
X66350Y-47857D01*
X66350Y-48063D01*
X66481Y-47801D02*
X66631Y-47801D01*
X66537Y-47670D02*
X66537Y-48007D01*
X66556Y-48045D01*
X66593Y-48063D01*
X66631Y-48063D01*
X66912Y-48045D02*
X66875Y-48063D01*
X66800Y-48063D01*
X66762Y-48045D01*
X66743Y-48007D01*
X66743Y-47857D01*
X66762Y-47820D01*
X66800Y-47801D01*
X66875Y-47801D01*
X66912Y-47820D01*
X66931Y-47857D01*
X66931Y-47895D01*
X66743Y-47932D01*
X67100Y-48063D02*
X67100Y-47801D01*
X67100Y-47876D02*
X67118Y-47838D01*
X67137Y-47820D01*
X67175Y-47801D01*
X67212Y-47801D01*
X67700Y-48063D02*
X67662Y-48045D01*
X67643Y-48026D01*
X67625Y-47988D01*
X67625Y-47876D01*
X67643Y-47838D01*
X67662Y-47820D01*
X67700Y-47801D01*
X67756Y-47801D01*
X67793Y-47820D01*
X67812Y-47838D01*
X67831Y-47876D01*
X67831Y-47988D01*
X67812Y-48026D01*
X67793Y-48045D01*
X67756Y-48063D01*
X67700Y-48063D01*
X67943Y-47801D02*
X68093Y-47801D01*
X68000Y-48063D02*
X68000Y-47726D01*
X68018Y-47688D01*
X68056Y-47670D01*
X68093Y-47670D01*
X68468Y-47801D02*
X68618Y-47801D01*
X68524Y-47670D02*
X68524Y-48007D01*
X68543Y-48045D01*
X68581Y-48063D01*
X68618Y-48063D01*
X68749Y-48063D02*
X68749Y-47670D01*
X68918Y-48063D02*
X68918Y-47857D01*
X68899Y-47820D01*
X68862Y-47801D01*
X68806Y-47801D01*
X68768Y-47820D01*
X68749Y-47838D01*
X69256Y-48045D02*
X69218Y-48063D01*
X69143Y-48063D01*
X69106Y-48045D01*
X69087Y-48007D01*
X69087Y-47857D01*
X69106Y-47820D01*
X69143Y-47801D01*
X69218Y-47801D01*
X69256Y-47820D01*
X69274Y-47857D01*
X69274Y-47895D01*
X69087Y-47932D01*
X69799Y-48063D02*
X69762Y-48045D01*
X69743Y-48007D01*
X69743Y-47670D01*
X69949Y-48063D02*
X69949Y-47801D01*
X69949Y-47670D02*
X69931Y-47688D01*
X69949Y-47707D01*
X69968Y-47688D01*
X69949Y-47670D01*
X69949Y-47707D01*
X70137Y-47801D02*
X70137Y-48063D01*
X70137Y-47838D02*
X70155Y-47820D01*
X70193Y-47801D01*
X70249Y-47801D01*
X70287Y-47820D01*
X70305Y-47857D01*
X70305Y-48063D01*
X70643Y-48045D02*
X70605Y-48063D01*
X70530Y-48063D01*
X70493Y-48045D01*
X70474Y-48007D01*
X70474Y-47857D01*
X70493Y-47820D01*
X70530Y-47801D01*
X70605Y-47801D01*
X70643Y-47820D01*
X70662Y-47857D01*
X70662Y-47895D01*
X70474Y-47932D01*
M02*
