%FSLAX34Y34*%
G04 Gerber Fmt 3.4, Leading zero omitted, Abs format*
G04 (created by PCBNEW (2014-04-04 BZR 4786)-product) date Sat 05 Apr 2014 06:47:19 PM CEST*
%MOIN*%
G01*
G70*
G90*
G04 APERTURE LIST*
%ADD10C,0.005906*%
%ADD11C,0.007874*%
%ADD12C,0.000100*%
%ADD13R,0.009843X0.039370*%
%ADD14C,0.040000*%
%ADD15C,0.064961*%
%ADD16R,0.064961X0.064961*%
%ADD17R,0.065000X0.065000*%
%ADD18C,0.065000*%
%ADD19C,0.010000*%
G04 APERTURE END LIST*
G54D10*
G54D11*
X61500Y-43200D02*
X61500Y-36800D01*
X66500Y-43200D02*
X61500Y-43200D01*
X66500Y-36800D02*
X66500Y-43200D01*
X61500Y-36800D02*
X66500Y-36800D01*
X63409Y-40944D02*
X64748Y-40944D01*
X63251Y-40787D02*
X63251Y-39055D01*
X63251Y-40787D02*
X63409Y-40944D01*
X64748Y-39055D02*
X64748Y-40944D01*
X63251Y-39055D02*
X64748Y-39055D01*
X63409Y-40590D02*
X63409Y-39409D01*
X63409Y-39409D02*
X64590Y-39409D01*
X64590Y-39409D02*
X64590Y-40590D01*
X64590Y-40590D02*
X63409Y-40590D01*
X61500Y-35500D02*
X66500Y-35500D01*
X66500Y-36500D02*
X61500Y-36500D01*
X61500Y-36500D02*
X61500Y-35500D01*
X66500Y-35500D02*
X66500Y-36500D01*
X66850Y-39500D02*
X66850Y-38250D01*
X66850Y-38250D02*
X68100Y-38250D01*
X67100Y-41500D02*
X67100Y-38500D01*
X67100Y-38500D02*
X69100Y-38500D01*
X69100Y-38500D02*
X69100Y-41500D01*
X69100Y-41500D02*
X67100Y-41500D01*
X66500Y-44500D02*
X61500Y-44500D01*
X61500Y-43500D02*
X66500Y-43500D01*
X66500Y-43500D02*
X66500Y-44500D01*
X61500Y-44500D02*
X61500Y-43500D01*
X62500Y-44500D02*
X62500Y-43500D01*
X61500Y-43000D02*
X62500Y-43000D01*
X61500Y-42000D02*
X62500Y-42000D01*
X62500Y-42000D02*
X62500Y-43000D01*
X61500Y-43000D02*
X61500Y-42000D01*
G54D12*
G36*
X68884Y-44006D02*
X68878Y-43996D01*
X68864Y-43973D01*
X68842Y-43940D01*
X68816Y-43901D01*
X68790Y-43862D01*
X68769Y-43830D01*
X68754Y-43808D01*
X68749Y-43798D01*
X68751Y-43793D01*
X68760Y-43775D01*
X68774Y-43748D01*
X68782Y-43732D01*
X68792Y-43708D01*
X68795Y-43695D01*
X68791Y-43693D01*
X68772Y-43684D01*
X68740Y-43670D01*
X68697Y-43652D01*
X68647Y-43630D01*
X68594Y-43608D01*
X68539Y-43585D01*
X68486Y-43563D01*
X68439Y-43544D01*
X68401Y-43528D01*
X68374Y-43518D01*
X68363Y-43514D01*
X68360Y-43515D01*
X68348Y-43528D01*
X68332Y-43549D01*
X68294Y-43596D01*
X68237Y-43642D01*
X68172Y-43670D01*
X68099Y-43679D01*
X68032Y-43671D01*
X67968Y-43645D01*
X67910Y-43600D01*
X67867Y-43545D01*
X67840Y-43481D01*
X67831Y-43410D01*
X67839Y-43342D01*
X67865Y-43276D01*
X67909Y-43218D01*
X67937Y-43193D01*
X67996Y-43159D01*
X68058Y-43140D01*
X68074Y-43138D01*
X68143Y-43141D01*
X68210Y-43161D01*
X68269Y-43198D01*
X68318Y-43249D01*
X68322Y-43255D01*
X68340Y-43278D01*
X68352Y-43294D01*
X68362Y-43306D01*
X68574Y-43218D01*
X68607Y-43204D01*
X68665Y-43180D01*
X68715Y-43159D01*
X68755Y-43142D01*
X68781Y-43130D01*
X68792Y-43125D01*
X68793Y-43125D01*
X68794Y-43117D01*
X68788Y-43101D01*
X68774Y-43071D01*
X68764Y-43052D01*
X68753Y-43029D01*
X68749Y-43019D01*
X68754Y-43010D01*
X68768Y-42989D01*
X68789Y-42957D01*
X68814Y-42919D01*
X68839Y-42883D01*
X68861Y-42850D01*
X68876Y-42826D01*
X68883Y-42814D01*
X68883Y-42812D01*
X68877Y-42802D01*
X68861Y-42783D01*
X68834Y-42754D01*
X68793Y-42713D01*
X68787Y-42707D01*
X68753Y-42673D01*
X68724Y-42646D01*
X68704Y-42628D01*
X68695Y-42621D01*
X68695Y-42621D01*
X68683Y-42627D01*
X68659Y-42642D01*
X68625Y-42664D01*
X68586Y-42691D01*
X68484Y-42761D01*
X68388Y-42723D01*
X68358Y-42711D01*
X68323Y-42696D01*
X68297Y-42685D01*
X68286Y-42679D01*
X68282Y-42669D01*
X68276Y-42642D01*
X68268Y-42604D01*
X68260Y-42559D01*
X68252Y-42515D01*
X68244Y-42476D01*
X68239Y-42448D01*
X68236Y-42435D01*
X68234Y-42432D01*
X68228Y-42429D01*
X68215Y-42428D01*
X68191Y-42427D01*
X68154Y-42426D01*
X68099Y-42426D01*
X68093Y-42426D01*
X68042Y-42427D01*
X68000Y-42428D01*
X67974Y-42429D01*
X67963Y-42431D01*
X67963Y-42431D01*
X67960Y-42443D01*
X67954Y-42471D01*
X67947Y-42510D01*
X67938Y-42557D01*
X67937Y-42560D01*
X67928Y-42606D01*
X67920Y-42645D01*
X67914Y-42673D01*
X67910Y-42684D01*
X67907Y-42687D01*
X67889Y-42696D01*
X67860Y-42709D01*
X67825Y-42725D01*
X67788Y-42740D01*
X67755Y-42753D01*
X67731Y-42762D01*
X67720Y-42765D01*
X67719Y-42764D01*
X67708Y-42757D01*
X67684Y-42741D01*
X67651Y-42719D01*
X67611Y-42692D01*
X67608Y-42690D01*
X67569Y-42663D01*
X67535Y-42641D01*
X67512Y-42627D01*
X67501Y-42621D01*
X67500Y-42621D01*
X67488Y-42630D01*
X67466Y-42650D01*
X67436Y-42679D01*
X67401Y-42713D01*
X67391Y-42724D01*
X67353Y-42763D01*
X67329Y-42789D01*
X67316Y-42806D01*
X67313Y-42814D01*
X67313Y-42814D01*
X67320Y-42826D01*
X67336Y-42851D01*
X67359Y-42884D01*
X67386Y-42924D01*
X67388Y-42927D01*
X67415Y-42966D01*
X67437Y-42999D01*
X67453Y-43022D01*
X67459Y-43033D01*
X67459Y-43034D01*
X67454Y-43050D01*
X67444Y-43078D01*
X67431Y-43113D01*
X67416Y-43149D01*
X67402Y-43182D01*
X67391Y-43207D01*
X67384Y-43219D01*
X67384Y-43219D01*
X67370Y-43223D01*
X67340Y-43230D01*
X67300Y-43238D01*
X67252Y-43248D01*
X67244Y-43249D01*
X67197Y-43258D01*
X67158Y-43265D01*
X67131Y-43271D01*
X67120Y-43274D01*
X67119Y-43280D01*
X67117Y-43303D01*
X67116Y-43338D01*
X67116Y-43381D01*
X67116Y-43425D01*
X67117Y-43468D01*
X67118Y-43505D01*
X67120Y-43532D01*
X67122Y-43543D01*
X67123Y-43543D01*
X67138Y-43547D01*
X67167Y-43554D01*
X67208Y-43562D01*
X67256Y-43571D01*
X67265Y-43573D01*
X67311Y-43582D01*
X67350Y-43590D01*
X67376Y-43595D01*
X67387Y-43598D01*
X67389Y-43603D01*
X67397Y-43622D01*
X67410Y-43653D01*
X67426Y-43692D01*
X67462Y-43782D01*
X67387Y-43893D01*
X67380Y-43903D01*
X67353Y-43943D01*
X67331Y-43975D01*
X67316Y-43998D01*
X67311Y-44007D01*
X67311Y-44008D01*
X67321Y-44019D01*
X67342Y-44041D01*
X67371Y-44071D01*
X67405Y-44106D01*
X67431Y-44131D01*
X67462Y-44162D01*
X67483Y-44181D01*
X67496Y-44192D01*
X67504Y-44195D01*
X67510Y-44194D01*
X67521Y-44187D01*
X67545Y-44171D01*
X67579Y-44148D01*
X67618Y-44121D01*
X67651Y-44099D01*
X67688Y-44075D01*
X67714Y-44060D01*
X67727Y-44054D01*
X67732Y-44056D01*
X67754Y-44063D01*
X67787Y-44077D01*
X67826Y-44093D01*
X67913Y-44132D01*
X67924Y-44189D01*
X67931Y-44224D01*
X67940Y-44272D01*
X67949Y-44319D01*
X67963Y-44391D01*
X68229Y-44394D01*
X68234Y-44383D01*
X68237Y-44372D01*
X68243Y-44345D01*
X68251Y-44307D01*
X68259Y-44261D01*
X68266Y-44223D01*
X68274Y-44184D01*
X68279Y-44156D01*
X68282Y-44144D01*
X68286Y-44140D01*
X68305Y-44131D01*
X68335Y-44117D01*
X68371Y-44101D01*
X68408Y-44086D01*
X68443Y-44072D01*
X68469Y-44063D01*
X68482Y-44059D01*
X68493Y-44064D01*
X68516Y-44079D01*
X68548Y-44100D01*
X68587Y-44127D01*
X68625Y-44153D01*
X68658Y-44176D01*
X68682Y-44191D01*
X68693Y-44198D01*
X68700Y-44194D01*
X68719Y-44179D01*
X68749Y-44150D01*
X68792Y-44106D01*
X68799Y-44099D01*
X68832Y-44065D01*
X68859Y-44036D01*
X68877Y-44015D01*
X68884Y-44006D01*
X68884Y-44006D01*
G37*
G36*
X68901Y-36379D02*
X68898Y-36354D01*
X68890Y-36331D01*
X68885Y-36321D01*
X68870Y-36300D01*
X68852Y-36283D01*
X68831Y-36271D01*
X68809Y-36262D01*
X68785Y-36258D01*
X68761Y-36259D01*
X68737Y-36265D01*
X68713Y-36276D01*
X68704Y-36283D01*
X68692Y-36294D01*
X68682Y-36305D01*
X68674Y-36315D01*
X68672Y-36319D01*
X68662Y-36340D01*
X68656Y-36362D01*
X68655Y-36387D01*
X68656Y-36395D01*
X68658Y-36408D01*
X68661Y-36420D01*
X68666Y-36433D01*
X68674Y-36447D01*
X68690Y-36467D01*
X68710Y-36484D01*
X68732Y-36496D01*
X68743Y-36499D01*
X68755Y-36503D01*
X68764Y-36504D01*
X68766Y-36504D01*
X68766Y-36504D01*
X68761Y-36505D01*
X68760Y-36505D01*
X68744Y-36509D01*
X68728Y-36515D01*
X68714Y-36522D01*
X68696Y-36536D01*
X68678Y-36555D01*
X68666Y-36577D01*
X68658Y-36601D01*
X68655Y-36627D01*
X68655Y-36633D01*
X68657Y-36653D01*
X68663Y-36671D01*
X68664Y-36675D01*
X68676Y-36696D01*
X68691Y-36714D01*
X68710Y-36730D01*
X68730Y-36741D01*
X68752Y-36748D01*
X68753Y-36748D01*
X68759Y-36749D01*
X68762Y-36750D01*
X68762Y-36750D01*
X68758Y-36751D01*
X68752Y-36752D01*
X68750Y-36753D01*
X68728Y-36760D01*
X68708Y-36772D01*
X68689Y-36788D01*
X68677Y-36802D01*
X68665Y-36824D01*
X68657Y-36847D01*
X68655Y-36873D01*
X68656Y-36892D01*
X68663Y-36916D01*
X68674Y-36939D01*
X68689Y-36958D01*
X68709Y-36974D01*
X68712Y-36976D01*
X68721Y-36982D01*
X68729Y-36986D01*
X68734Y-36988D01*
X68745Y-36991D01*
X68756Y-36994D01*
X68764Y-36995D01*
X68765Y-36995D01*
X68766Y-36996D01*
X68760Y-36997D01*
X68747Y-36999D01*
X68730Y-37005D01*
X68715Y-37013D01*
X68695Y-37027D01*
X68678Y-37046D01*
X68666Y-37068D01*
X68658Y-37092D01*
X68655Y-37118D01*
X68657Y-37141D01*
X68664Y-37165D01*
X68675Y-37187D01*
X68692Y-37207D01*
X68703Y-37216D01*
X68717Y-37226D01*
X68732Y-37233D01*
X68745Y-37237D01*
X68770Y-37242D01*
X68794Y-37241D01*
X68817Y-37235D01*
X68838Y-37226D01*
X68858Y-37212D01*
X68874Y-37195D01*
X68887Y-37176D01*
X68896Y-37153D01*
X68900Y-37128D01*
X68900Y-37126D01*
X68900Y-37101D01*
X68894Y-37077D01*
X68883Y-37055D01*
X68878Y-37047D01*
X68863Y-37030D01*
X68846Y-37016D01*
X68827Y-37006D01*
X68820Y-37003D01*
X68810Y-37000D01*
X68799Y-36997D01*
X68791Y-36996D01*
X68786Y-36996D01*
X68791Y-36995D01*
X68795Y-36995D01*
X68806Y-36992D01*
X68818Y-36989D01*
X68828Y-36985D01*
X68840Y-36979D01*
X68860Y-36964D01*
X68877Y-36945D01*
X68890Y-36923D01*
X68898Y-36899D01*
X68899Y-36895D01*
X68901Y-36878D01*
X68900Y-36860D01*
X68898Y-36844D01*
X68892Y-36828D01*
X68881Y-36805D01*
X68864Y-36784D01*
X68862Y-36783D01*
X68845Y-36769D01*
X68824Y-36758D01*
X68803Y-36752D01*
X68802Y-36752D01*
X68796Y-36750D01*
X68794Y-36750D01*
X68796Y-36750D01*
X68801Y-36749D01*
X68803Y-36748D01*
X68815Y-36745D01*
X68829Y-36739D01*
X68843Y-36732D01*
X68858Y-36721D01*
X68875Y-36703D01*
X68889Y-36681D01*
X68897Y-36657D01*
X68898Y-36652D01*
X68900Y-36636D01*
X68900Y-36618D01*
X68898Y-36602D01*
X68894Y-36588D01*
X68884Y-36565D01*
X68869Y-36545D01*
X68850Y-36528D01*
X68828Y-36515D01*
X68821Y-36512D01*
X68810Y-36509D01*
X68799Y-36506D01*
X68791Y-36505D01*
X68790Y-36505D01*
X68790Y-36504D01*
X68795Y-36504D01*
X68795Y-36503D01*
X68811Y-36500D01*
X68827Y-36494D01*
X68842Y-36487D01*
X68847Y-36483D01*
X68866Y-36467D01*
X68881Y-36448D01*
X68892Y-36427D01*
X68899Y-36403D01*
X68901Y-36379D01*
X68901Y-36379D01*
G37*
G36*
X68655Y-37373D02*
X68654Y-37358D01*
X68653Y-37343D01*
X68649Y-37327D01*
X68639Y-37304D01*
X68624Y-37283D01*
X68606Y-37266D01*
X68584Y-37253D01*
X68561Y-37245D01*
X68536Y-37242D01*
X68511Y-37243D01*
X68487Y-37250D01*
X68465Y-37261D01*
X68446Y-37277D01*
X68429Y-37296D01*
X68425Y-37303D01*
X68415Y-37326D01*
X68409Y-37351D01*
X68409Y-37376D01*
X68414Y-37402D01*
X68423Y-37422D01*
X68437Y-37443D01*
X68455Y-37461D01*
X68477Y-37475D01*
X68501Y-37484D01*
X68514Y-37487D01*
X68530Y-37488D01*
X68546Y-37487D01*
X68559Y-37485D01*
X68564Y-37484D01*
X68588Y-37474D01*
X68610Y-37460D01*
X68628Y-37441D01*
X68642Y-37419D01*
X68647Y-37408D01*
X68651Y-37394D01*
X68654Y-37381D01*
X68655Y-37373D01*
X68655Y-37373D01*
G37*
G36*
X68655Y-36133D02*
X68652Y-36107D01*
X68643Y-36083D01*
X68629Y-36060D01*
X68625Y-36055D01*
X68607Y-36038D01*
X68586Y-36025D01*
X68562Y-36016D01*
X68549Y-36013D01*
X68533Y-36012D01*
X68518Y-36013D01*
X68505Y-36015D01*
X68499Y-36016D01*
X68474Y-36026D01*
X68453Y-36040D01*
X68436Y-36058D01*
X68422Y-36079D01*
X68413Y-36103D01*
X68409Y-36129D01*
X68409Y-36138D01*
X68412Y-36163D01*
X68419Y-36186D01*
X68431Y-36207D01*
X68447Y-36225D01*
X68466Y-36239D01*
X68488Y-36250D01*
X68512Y-36257D01*
X68537Y-36258D01*
X68552Y-36257D01*
X68566Y-36254D01*
X68580Y-36248D01*
X68599Y-36238D01*
X68618Y-36223D01*
X68634Y-36203D01*
X68646Y-36182D01*
X68653Y-36158D01*
X68655Y-36133D01*
X68655Y-36133D01*
G37*
G36*
X68408Y-37618D02*
X68408Y-37600D01*
X68406Y-37585D01*
X68401Y-37567D01*
X68389Y-37545D01*
X68372Y-37524D01*
X68357Y-37511D01*
X68336Y-37499D01*
X68312Y-37490D01*
X68302Y-37489D01*
X68288Y-37488D01*
X68273Y-37488D01*
X68260Y-37490D01*
X68253Y-37492D01*
X68228Y-37502D01*
X68207Y-37516D01*
X68189Y-37534D01*
X68175Y-37556D01*
X68171Y-37565D01*
X68166Y-37581D01*
X68164Y-37597D01*
X68163Y-37615D01*
X68164Y-37627D01*
X68166Y-37640D01*
X68169Y-37652D01*
X68175Y-37666D01*
X68180Y-37674D01*
X68195Y-37694D01*
X68214Y-37711D01*
X68236Y-37724D01*
X68261Y-37732D01*
X68267Y-37733D01*
X68282Y-37734D01*
X68297Y-37733D01*
X68310Y-37732D01*
X68319Y-37730D01*
X68343Y-37720D01*
X68364Y-37706D01*
X68382Y-37688D01*
X68395Y-37666D01*
X68405Y-37641D01*
X68406Y-37634D01*
X68408Y-37618D01*
X68408Y-37618D01*
G37*
G36*
X68408Y-36630D02*
X68407Y-36606D01*
X68400Y-36582D01*
X68394Y-36569D01*
X68379Y-36548D01*
X68361Y-36530D01*
X68339Y-36517D01*
X68315Y-36508D01*
X68310Y-36507D01*
X68290Y-36504D01*
X68271Y-36505D01*
X68250Y-36510D01*
X68226Y-36520D01*
X68205Y-36534D01*
X68188Y-36553D01*
X68175Y-36575D01*
X68166Y-36600D01*
X68162Y-36615D01*
X68161Y-36607D01*
X68161Y-36605D01*
X68156Y-36587D01*
X68148Y-36569D01*
X68137Y-36552D01*
X68134Y-36549D01*
X68116Y-36531D01*
X68096Y-36518D01*
X68073Y-36509D01*
X68049Y-36505D01*
X68025Y-36505D01*
X68001Y-36511D01*
X67978Y-36521D01*
X67977Y-36522D01*
X67957Y-36537D01*
X67940Y-36556D01*
X67928Y-36577D01*
X67921Y-36599D01*
X67918Y-36623D01*
X67919Y-36647D01*
X67925Y-36670D01*
X67936Y-36692D01*
X67951Y-36712D01*
X67963Y-36723D01*
X67981Y-36735D01*
X68000Y-36744D01*
X68018Y-36749D01*
X68023Y-36749D01*
X68025Y-36750D01*
X68023Y-36750D01*
X68018Y-36751D01*
X68002Y-36756D01*
X67984Y-36763D01*
X67968Y-36773D01*
X67960Y-36780D01*
X67942Y-36798D01*
X67929Y-36820D01*
X67921Y-36843D01*
X67917Y-36868D01*
X67919Y-36893D01*
X67923Y-36909D01*
X67933Y-36932D01*
X67947Y-36953D01*
X67965Y-36970D01*
X67987Y-36983D01*
X68011Y-36992D01*
X68023Y-36994D01*
X68048Y-36995D01*
X68073Y-36991D01*
X68096Y-36982D01*
X68116Y-36968D01*
X68134Y-36951D01*
X68149Y-36929D01*
X68153Y-36919D01*
X68157Y-36908D01*
X68160Y-36897D01*
X68162Y-36889D01*
X68162Y-36888D01*
X68162Y-36888D01*
X68164Y-36894D01*
X68167Y-36906D01*
X68173Y-36922D01*
X68180Y-36936D01*
X68185Y-36944D01*
X68200Y-36961D01*
X68217Y-36975D01*
X68236Y-36986D01*
X68256Y-36992D01*
X68279Y-36995D01*
X68300Y-36995D01*
X68304Y-36994D01*
X68330Y-36988D01*
X68352Y-36976D01*
X68372Y-36959D01*
X68385Y-36945D01*
X68398Y-36923D01*
X68406Y-36899D01*
X68407Y-36890D01*
X68408Y-36876D01*
X68407Y-36862D01*
X68406Y-36849D01*
X68404Y-36839D01*
X68402Y-36831D01*
X68390Y-36807D01*
X68374Y-36787D01*
X68354Y-36770D01*
X68344Y-36764D01*
X68327Y-36757D01*
X68311Y-36752D01*
X68310Y-36752D01*
X68304Y-36750D01*
X68302Y-36750D01*
X68302Y-36750D01*
X68269Y-36750D01*
X68269Y-36750D01*
X68266Y-36751D01*
X68260Y-36752D01*
X68258Y-36752D01*
X68236Y-36760D01*
X68216Y-36771D01*
X68197Y-36787D01*
X68182Y-36806D01*
X68171Y-36827D01*
X68171Y-36828D01*
X68167Y-36839D01*
X68165Y-36849D01*
X68162Y-36860D01*
X68160Y-36850D01*
X68157Y-36835D01*
X68147Y-36813D01*
X68133Y-36793D01*
X68116Y-36776D01*
X68096Y-36763D01*
X68085Y-36758D01*
X68072Y-36754D01*
X68062Y-36751D01*
X68057Y-36751D01*
X68055Y-36750D01*
X68057Y-36750D01*
X68062Y-36749D01*
X68071Y-36747D01*
X68084Y-36742D01*
X68096Y-36737D01*
X68108Y-36730D01*
X68127Y-36714D01*
X68143Y-36695D01*
X68154Y-36673D01*
X68161Y-36650D01*
X68162Y-36639D01*
X68165Y-36650D01*
X68165Y-36652D01*
X68168Y-36663D01*
X68171Y-36673D01*
X68172Y-36675D01*
X68183Y-36696D01*
X68199Y-36714D01*
X68217Y-36730D01*
X68238Y-36741D01*
X68260Y-36748D01*
X68261Y-36748D01*
X68267Y-36749D01*
X68269Y-36750D01*
X68302Y-36750D01*
X68302Y-36750D01*
X68305Y-36749D01*
X68311Y-36748D01*
X68327Y-36744D01*
X68349Y-36733D01*
X68369Y-36718D01*
X68385Y-36700D01*
X68398Y-36678D01*
X68398Y-36678D01*
X68405Y-36655D01*
X68408Y-36630D01*
X68408Y-36630D01*
G37*
G36*
X68408Y-35898D02*
X68408Y-35878D01*
X68405Y-35860D01*
X68402Y-35848D01*
X68391Y-35825D01*
X68376Y-35805D01*
X68357Y-35789D01*
X68335Y-35777D01*
X68311Y-35769D01*
X68286Y-35766D01*
X68275Y-35767D01*
X68250Y-35771D01*
X68226Y-35781D01*
X68204Y-35796D01*
X68200Y-35801D01*
X68185Y-35818D01*
X68173Y-35839D01*
X68166Y-35860D01*
X68166Y-35861D01*
X68163Y-35879D01*
X68163Y-35899D01*
X68166Y-35918D01*
X68168Y-35924D01*
X68177Y-35948D01*
X68191Y-35968D01*
X68209Y-35985D01*
X68229Y-35998D01*
X68251Y-36007D01*
X68275Y-36012D01*
X68300Y-36012D01*
X68325Y-36006D01*
X68343Y-35998D01*
X68364Y-35984D01*
X68382Y-35965D01*
X68396Y-35944D01*
X68405Y-35920D01*
X68405Y-35917D01*
X68408Y-35898D01*
X68408Y-35898D01*
G37*
G36*
X67671Y-37115D02*
X67668Y-37091D01*
X67660Y-37067D01*
X67654Y-37056D01*
X67646Y-37045D01*
X67636Y-37033D01*
X67622Y-37020D01*
X67602Y-37008D01*
X67578Y-36999D01*
X67571Y-36998D01*
X67555Y-36996D01*
X67537Y-36996D01*
X67522Y-36998D01*
X67502Y-37005D01*
X67480Y-37016D01*
X67462Y-37031D01*
X67459Y-37033D01*
X67450Y-37045D01*
X67441Y-37058D01*
X67435Y-37071D01*
X67433Y-37075D01*
X67430Y-37085D01*
X67427Y-37095D01*
X67426Y-37102D01*
X67426Y-37106D01*
X67425Y-37102D01*
X67423Y-37096D01*
X67421Y-37088D01*
X67419Y-37079D01*
X67410Y-37061D01*
X67399Y-37043D01*
X67386Y-37028D01*
X67383Y-37026D01*
X67362Y-37011D01*
X67338Y-37001D01*
X67314Y-36996D01*
X67289Y-36996D01*
X67283Y-36997D01*
X67258Y-37004D01*
X67236Y-37015D01*
X67215Y-37032D01*
X67202Y-37047D01*
X67190Y-37068D01*
X67182Y-37092D01*
X67181Y-37097D01*
X67179Y-37114D01*
X67180Y-37131D01*
X67182Y-37147D01*
X67187Y-37161D01*
X67198Y-37183D01*
X67213Y-37203D01*
X67231Y-37219D01*
X67253Y-37232D01*
X67276Y-37239D01*
X67279Y-37240D01*
X67285Y-37241D01*
X67287Y-37243D01*
X67285Y-37243D01*
X67279Y-37244D01*
X67269Y-37246D01*
X67258Y-37250D01*
X67248Y-37254D01*
X67241Y-37258D01*
X67220Y-37273D01*
X67203Y-37292D01*
X67190Y-37314D01*
X67182Y-37338D01*
X67179Y-37364D01*
X67181Y-37384D01*
X67187Y-37407D01*
X67197Y-37429D01*
X67206Y-37442D01*
X67224Y-37460D01*
X67245Y-37473D01*
X67268Y-37483D01*
X67292Y-37488D01*
X67316Y-37487D01*
X67339Y-37482D01*
X67363Y-37472D01*
X67384Y-37457D01*
X67401Y-37438D01*
X67414Y-37416D01*
X67423Y-37391D01*
X67426Y-37377D01*
X67427Y-37385D01*
X67428Y-37390D01*
X67434Y-37410D01*
X67444Y-37429D01*
X67457Y-37447D01*
X67472Y-37461D01*
X67485Y-37470D01*
X67502Y-37479D01*
X67518Y-37484D01*
X67531Y-37487D01*
X67547Y-37488D01*
X67562Y-37487D01*
X67575Y-37485D01*
X67590Y-37481D01*
X67613Y-37469D01*
X67634Y-37454D01*
X67650Y-37434D01*
X67662Y-37411D01*
X67670Y-37386D01*
X67671Y-37379D01*
X67671Y-37364D01*
X67670Y-37348D01*
X67668Y-37334D01*
X67665Y-37324D01*
X67653Y-37301D01*
X67638Y-37281D01*
X67619Y-37264D01*
X67597Y-37252D01*
X67573Y-37244D01*
X67571Y-37244D01*
X67565Y-37242D01*
X67566Y-37241D01*
X67532Y-37241D01*
X67531Y-37242D01*
X67526Y-37244D01*
X67525Y-37244D01*
X67508Y-37248D01*
X67491Y-37256D01*
X67475Y-37266D01*
X67466Y-37273D01*
X67448Y-37293D01*
X67436Y-37315D01*
X67428Y-37340D01*
X67425Y-37352D01*
X67424Y-37343D01*
X67422Y-37336D01*
X67420Y-37328D01*
X67418Y-37323D01*
X67407Y-37301D01*
X67392Y-37281D01*
X67373Y-37264D01*
X67352Y-37252D01*
X67328Y-37244D01*
X67322Y-37243D01*
X67319Y-37242D01*
X67321Y-37241D01*
X67329Y-37239D01*
X67329Y-37239D01*
X67342Y-37235D01*
X67357Y-37229D01*
X67370Y-37221D01*
X67378Y-37215D01*
X67390Y-37204D01*
X67401Y-37192D01*
X67409Y-37180D01*
X67410Y-37179D01*
X67418Y-37160D01*
X67424Y-37140D01*
X67425Y-37132D01*
X67427Y-37141D01*
X67433Y-37163D01*
X67445Y-37185D01*
X67460Y-37205D01*
X67479Y-37220D01*
X67485Y-37224D01*
X67497Y-37230D01*
X67509Y-37235D01*
X67521Y-37239D01*
X67529Y-37240D01*
X67529Y-37240D01*
X67532Y-37241D01*
X67566Y-37241D01*
X67566Y-37241D01*
X67571Y-37240D01*
X67578Y-37238D01*
X67586Y-37236D01*
X67599Y-37231D01*
X67620Y-37219D01*
X67638Y-37202D01*
X67653Y-37183D01*
X67663Y-37162D01*
X67670Y-37139D01*
X67671Y-37115D01*
X67671Y-37115D01*
G37*
G36*
X67671Y-36375D02*
X67668Y-36351D01*
X67659Y-36328D01*
X67646Y-36307D01*
X67630Y-36289D01*
X67609Y-36274D01*
X67586Y-36264D01*
X67578Y-36262D01*
X67571Y-36260D01*
X67570Y-36260D01*
X67565Y-36259D01*
X67565Y-36259D01*
X67531Y-36259D01*
X67528Y-36260D01*
X67519Y-36262D01*
X67505Y-36266D01*
X67483Y-36277D01*
X67464Y-36292D01*
X67448Y-36311D01*
X67435Y-36333D01*
X67428Y-36357D01*
X67425Y-36368D01*
X67424Y-36360D01*
X67423Y-36359D01*
X67418Y-36339D01*
X67409Y-36320D01*
X67404Y-36312D01*
X67394Y-36300D01*
X67382Y-36288D01*
X67370Y-36279D01*
X67359Y-36272D01*
X67344Y-36265D01*
X67329Y-36261D01*
X67322Y-36260D01*
X67319Y-36258D01*
X67321Y-36257D01*
X67328Y-36256D01*
X67344Y-36251D01*
X67367Y-36240D01*
X67388Y-36224D01*
X67404Y-36205D01*
X67416Y-36182D01*
X67424Y-36157D01*
X67425Y-36148D01*
X67428Y-36160D01*
X67431Y-36171D01*
X67441Y-36195D01*
X67456Y-36216D01*
X67475Y-36234D01*
X67482Y-36239D01*
X67493Y-36245D01*
X67506Y-36251D01*
X67515Y-36254D01*
X67525Y-36256D01*
X67525Y-36256D01*
X67530Y-36258D01*
X67531Y-36259D01*
X67565Y-36259D01*
X67566Y-36258D01*
X67572Y-36256D01*
X67581Y-36254D01*
X67599Y-36247D01*
X67617Y-36237D01*
X67626Y-36230D01*
X67645Y-36212D01*
X67658Y-36190D01*
X67668Y-36165D01*
X67670Y-36155D01*
X67671Y-36137D01*
X67670Y-36120D01*
X67668Y-36105D01*
X67667Y-36103D01*
X67658Y-36079D01*
X67643Y-36057D01*
X67625Y-36039D01*
X67603Y-36025D01*
X67579Y-36016D01*
X67567Y-36014D01*
X67550Y-36012D01*
X67533Y-36013D01*
X67518Y-36016D01*
X67505Y-36020D01*
X67487Y-36029D01*
X67472Y-36039D01*
X67460Y-36050D01*
X67448Y-36065D01*
X67438Y-36081D01*
X67435Y-36087D01*
X67431Y-36098D01*
X67428Y-36110D01*
X67426Y-36119D01*
X67426Y-36119D01*
X67425Y-36117D01*
X67423Y-36109D01*
X67418Y-36095D01*
X67412Y-36079D01*
X67404Y-36066D01*
X67402Y-36063D01*
X67388Y-36047D01*
X67370Y-36033D01*
X67352Y-36022D01*
X67343Y-36019D01*
X67318Y-36013D01*
X67293Y-36012D01*
X67268Y-36017D01*
X67263Y-36018D01*
X67240Y-36029D01*
X67220Y-36044D01*
X67203Y-36063D01*
X67190Y-36085D01*
X67182Y-36109D01*
X67181Y-36113D01*
X67179Y-36129D01*
X67180Y-36148D01*
X67182Y-36164D01*
X67183Y-36167D01*
X67193Y-36192D01*
X67207Y-36214D01*
X67226Y-36232D01*
X67248Y-36246D01*
X67255Y-36249D01*
X67266Y-36253D01*
X67277Y-36256D01*
X67285Y-36257D01*
X67286Y-36257D01*
X67287Y-36258D01*
X67284Y-36259D01*
X67277Y-36261D01*
X67260Y-36265D01*
X67238Y-36276D01*
X67219Y-36291D01*
X67203Y-36309D01*
X67190Y-36331D01*
X67190Y-36331D01*
X67182Y-36354D01*
X67179Y-36378D01*
X67181Y-36403D01*
X67188Y-36426D01*
X67194Y-36440D01*
X67209Y-36461D01*
X67227Y-36479D01*
X67248Y-36492D01*
X67272Y-36501D01*
X67277Y-36502D01*
X67297Y-36505D01*
X67316Y-36504D01*
X67339Y-36499D01*
X67363Y-36488D01*
X67383Y-36474D01*
X67401Y-36455D01*
X67414Y-36433D01*
X67423Y-36407D01*
X67424Y-36402D01*
X67426Y-36398D01*
X67426Y-36398D01*
X67427Y-36405D01*
X67431Y-36419D01*
X67438Y-36435D01*
X67446Y-36449D01*
X67456Y-36463D01*
X67475Y-36480D01*
X67497Y-36493D01*
X67501Y-36495D01*
X67525Y-36502D01*
X67550Y-36504D01*
X67576Y-36501D01*
X67599Y-36493D01*
X67611Y-36488D01*
X67622Y-36480D01*
X67634Y-36470D01*
X67634Y-36469D01*
X67651Y-36449D01*
X67663Y-36427D01*
X67670Y-36402D01*
X67670Y-36400D01*
X67671Y-36375D01*
X67671Y-36375D01*
G37*
%LPC*%
G54D13*
X63606Y-40590D03*
X63803Y-40590D03*
X64000Y-40590D03*
X64196Y-40590D03*
X64393Y-40590D03*
X64393Y-39409D03*
X64196Y-39409D03*
X64000Y-39409D03*
X63803Y-39409D03*
X63606Y-39409D03*
G54D14*
X64000Y-40000D03*
G54D15*
X66000Y-36000D03*
X65000Y-36000D03*
X64000Y-36000D03*
X63000Y-36000D03*
X62000Y-36000D03*
G54D16*
X66000Y-42500D03*
X66000Y-37500D03*
X62000Y-37500D03*
G54D17*
X67600Y-39000D03*
G54D18*
X68600Y-39000D03*
X67600Y-40000D03*
X68600Y-40000D03*
X67600Y-41000D03*
X68600Y-41000D03*
G54D16*
X62000Y-44000D03*
G54D15*
X63000Y-44000D03*
X64000Y-44000D03*
X65000Y-44000D03*
X66000Y-44000D03*
G54D16*
X62000Y-42500D03*
G54D10*
G36*
X64850Y-41050D02*
X63150Y-41050D01*
X63150Y-38950D01*
X64850Y-38950D01*
X64850Y-41050D01*
X64850Y-41050D01*
G37*
G54D19*
X64850Y-41050D02*
X63150Y-41050D01*
X63150Y-38950D01*
X64850Y-38950D01*
X64850Y-41050D01*
M02*
