%FSLAX34Y34*%
G04 Gerber Fmt 3.4, Leading zero omitted, Abs format*
G04 (created by PCBNEW (2014-03-14 BZR 4750)-product) date Mon 17 Mar 2014 07:56:22 PM CET*
%MOIN*%
G01*
G70*
G90*
G04 APERTURE LIST*
%ADD10C,0.005906*%
%ADD11C,0.009843*%
%ADD12C,0.007874*%
%ADD13R,0.064961X0.064961*%
%ADD14C,0.040000*%
G04 APERTURE END LIST*
G54D10*
G54D11*
X56657Y-41201D02*
X56788Y-41595D01*
X56919Y-41201D01*
X57125Y-41201D02*
X57163Y-41201D01*
X57200Y-41220D01*
X57219Y-41239D01*
X57238Y-41276D01*
X57257Y-41351D01*
X57257Y-41445D01*
X57238Y-41520D01*
X57219Y-41557D01*
X57200Y-41576D01*
X57163Y-41595D01*
X57125Y-41595D01*
X57088Y-41576D01*
X57069Y-41557D01*
X57050Y-41520D01*
X57032Y-41445D01*
X57032Y-41351D01*
X57050Y-41276D01*
X57069Y-41239D01*
X57088Y-41220D01*
X57125Y-41201D01*
X57425Y-41557D02*
X57444Y-41576D01*
X57425Y-41595D01*
X57407Y-41576D01*
X57425Y-41557D01*
X57425Y-41595D01*
X57819Y-41595D02*
X57594Y-41595D01*
X57707Y-41595D02*
X57707Y-41201D01*
X57669Y-41257D01*
X57632Y-41295D01*
X57594Y-41314D01*
X58063Y-41201D02*
X58100Y-41201D01*
X58138Y-41220D01*
X58157Y-41239D01*
X58175Y-41276D01*
X58194Y-41351D01*
X58194Y-41445D01*
X58175Y-41520D01*
X58157Y-41557D01*
X58138Y-41576D01*
X58100Y-41595D01*
X58063Y-41595D01*
X58025Y-41576D01*
X58007Y-41557D01*
X57988Y-41520D01*
X57969Y-41445D01*
X57969Y-41351D01*
X57988Y-41276D01*
X58007Y-41239D01*
X58025Y-41220D01*
X58063Y-41201D01*
X58363Y-41557D02*
X58382Y-41576D01*
X58363Y-41595D01*
X58344Y-41576D01*
X58363Y-41557D01*
X58363Y-41595D01*
X58550Y-41595D02*
X58550Y-41201D01*
X58550Y-41351D02*
X58588Y-41332D01*
X58663Y-41332D01*
X58700Y-41351D01*
X58719Y-41370D01*
X58738Y-41407D01*
X58738Y-41520D01*
X58719Y-41557D01*
X58700Y-41576D01*
X58663Y-41595D01*
X58588Y-41595D01*
X58550Y-41576D01*
X56987Y-37513D02*
X56717Y-37513D01*
X56852Y-37513D02*
X56852Y-37041D01*
X56807Y-37108D01*
X56762Y-37153D01*
X56717Y-37176D01*
X57280Y-37041D02*
X57325Y-37041D01*
X57370Y-37063D01*
X57392Y-37086D01*
X57415Y-37131D01*
X57437Y-37221D01*
X57437Y-37333D01*
X57415Y-37423D01*
X57392Y-37468D01*
X57370Y-37491D01*
X57325Y-37513D01*
X57280Y-37513D01*
X57235Y-37491D01*
X57212Y-37468D01*
X57190Y-37423D01*
X57167Y-37333D01*
X57167Y-37221D01*
X57190Y-37131D01*
X57212Y-37086D01*
X57235Y-37063D01*
X57280Y-37041D01*
X57639Y-37468D02*
X57662Y-37491D01*
X57639Y-37513D01*
X57617Y-37491D01*
X57639Y-37468D01*
X57639Y-37513D01*
X57864Y-37468D02*
X57887Y-37491D01*
X57864Y-37513D01*
X57842Y-37491D01*
X57864Y-37468D01*
X57864Y-37513D01*
X58089Y-37468D02*
X58112Y-37491D01*
X58089Y-37513D01*
X58067Y-37491D01*
X58089Y-37468D01*
X58089Y-37513D01*
X58517Y-37041D02*
X58427Y-37041D01*
X58382Y-37063D01*
X58359Y-37086D01*
X58314Y-37153D01*
X58292Y-37243D01*
X58292Y-37423D01*
X58314Y-37468D01*
X58337Y-37491D01*
X58382Y-37513D01*
X58472Y-37513D01*
X58517Y-37491D01*
X58539Y-37468D01*
X58562Y-37423D01*
X58562Y-37311D01*
X58539Y-37266D01*
X58517Y-37243D01*
X58472Y-37221D01*
X58382Y-37221D01*
X58337Y-37243D01*
X58314Y-37266D01*
X58292Y-37311D01*
X57272Y-42523D02*
X57002Y-42523D01*
X57137Y-42523D02*
X57137Y-42051D01*
X57092Y-42118D01*
X57047Y-42163D01*
X57002Y-42186D01*
X57475Y-42478D02*
X57497Y-42501D01*
X57475Y-42523D01*
X57452Y-42501D01*
X57475Y-42478D01*
X57475Y-42523D01*
X57700Y-42478D02*
X57722Y-42501D01*
X57700Y-42523D01*
X57677Y-42501D01*
X57700Y-42478D01*
X57700Y-42523D01*
X57924Y-42478D02*
X57947Y-42501D01*
X57924Y-42523D01*
X57902Y-42501D01*
X57924Y-42478D01*
X57924Y-42523D01*
X58374Y-42051D02*
X58149Y-42051D01*
X58127Y-42276D01*
X58149Y-42253D01*
X58194Y-42231D01*
X58307Y-42231D01*
X58352Y-42253D01*
X58374Y-42276D01*
X58397Y-42321D01*
X58397Y-42433D01*
X58374Y-42478D01*
X58352Y-42501D01*
X58307Y-42523D01*
X58194Y-42523D01*
X58149Y-42501D01*
X58127Y-42478D01*
G54D12*
X56895Y-40690D02*
G75*
G03X56895Y-40690I-85J0D01*
G74*
G01*
G54D11*
X55373Y-38262D02*
X55523Y-38262D01*
X55429Y-38130D02*
X55429Y-38468D01*
X55448Y-38505D01*
X55485Y-38524D01*
X55523Y-38524D01*
X55860Y-38524D02*
X55635Y-38524D01*
X55748Y-38524D02*
X55748Y-38130D01*
X55710Y-38187D01*
X55673Y-38224D01*
X55635Y-38243D01*
X55991Y-38130D02*
X56235Y-38130D01*
X56104Y-38280D01*
X56160Y-38280D01*
X56197Y-38299D01*
X56216Y-38318D01*
X56235Y-38355D01*
X56235Y-38449D01*
X56216Y-38487D01*
X56197Y-38505D01*
X56160Y-38524D01*
X56047Y-38524D01*
X56010Y-38505D01*
X55991Y-38487D01*
X56404Y-38374D02*
X56704Y-38374D01*
X56891Y-38524D02*
X56891Y-38130D01*
X56985Y-38130D01*
X57041Y-38149D01*
X57079Y-38187D01*
X57097Y-38224D01*
X57116Y-38299D01*
X57116Y-38355D01*
X57097Y-38430D01*
X57079Y-38468D01*
X57041Y-38505D01*
X56985Y-38524D01*
X56891Y-38524D01*
X57416Y-38318D02*
X57285Y-38318D01*
X57285Y-38524D02*
X57285Y-38130D01*
X57472Y-38130D01*
X57622Y-38524D02*
X57622Y-38130D01*
X57847Y-38524D01*
X57847Y-38130D01*
X58241Y-38524D02*
X58016Y-38524D01*
X58128Y-38524D02*
X58128Y-38130D01*
X58091Y-38187D01*
X58053Y-38224D01*
X58016Y-38243D01*
X58485Y-38130D02*
X58522Y-38130D01*
X58560Y-38149D01*
X58578Y-38168D01*
X58597Y-38205D01*
X58616Y-38280D01*
X58616Y-38374D01*
X58597Y-38449D01*
X58578Y-38487D01*
X58560Y-38505D01*
X58522Y-38524D01*
X58485Y-38524D01*
X58447Y-38505D01*
X58428Y-38487D01*
X58410Y-38449D01*
X58391Y-38374D01*
X58391Y-38280D01*
X58410Y-38205D01*
X58428Y-38168D01*
X58447Y-38149D01*
X58485Y-38130D01*
X59085Y-38524D02*
X59085Y-38130D01*
X59235Y-38130D01*
X59272Y-38149D01*
X59291Y-38168D01*
X59310Y-38205D01*
X59310Y-38262D01*
X59291Y-38299D01*
X59272Y-38318D01*
X59235Y-38337D01*
X59085Y-38337D01*
X59478Y-38487D02*
X59497Y-38505D01*
X59478Y-38524D01*
X59460Y-38505D01*
X59478Y-38487D01*
X59478Y-38524D01*
X59647Y-38412D02*
X59835Y-38412D01*
X59610Y-38524D02*
X59741Y-38130D01*
X59872Y-38524D01*
X60003Y-38487D02*
X60022Y-38505D01*
X60003Y-38524D01*
X59985Y-38505D01*
X60003Y-38487D01*
X60003Y-38524D01*
G54D12*
X55200Y-36600D02*
X60200Y-36600D01*
X60200Y-36600D02*
X60200Y-43000D01*
X60200Y-43000D02*
X55200Y-43000D01*
X55200Y-43000D02*
X55200Y-36600D01*
X57109Y-40390D02*
X57109Y-39209D01*
X57109Y-39209D02*
X58290Y-39209D01*
X58290Y-39209D02*
X58290Y-40390D01*
X58290Y-40390D02*
X57109Y-40390D01*
X55200Y-42800D02*
X56200Y-42800D01*
X55200Y-41800D02*
X56200Y-41800D01*
X56200Y-41800D02*
X56200Y-42800D01*
X55200Y-42800D02*
X55200Y-41800D01*
%LPC*%
G54D13*
X59700Y-42300D03*
X59700Y-37300D03*
X55700Y-37300D03*
G54D14*
X57110Y-40390D03*
X58290Y-40390D03*
X58290Y-39210D03*
X57110Y-39210D03*
G54D13*
X55700Y-42300D03*
M02*
