M48
INCH,TZ
T1C0.013
T2C0.024
T3C0.040
%
G90
G05
T1
X5.727Y-3.953
X5.727Y-3.98
X5.727Y-4.007
X5.743Y-3.936
X5.743Y-4.024
X5.77Y-3.936
X5.77Y-4.024
X5.797Y-3.936
X5.797Y-4.024
X5.814Y-3.953
X5.814Y-3.98
X5.814Y-4.007
T2
X5.57Y-3.73
X5.57Y-4.23
X5.97Y-3.73
X5.97Y-4.23
T3
X5.711Y-3.921
X5.711Y-4.039
X5.829Y-3.921
X5.829Y-4.039
T0
M30
