%FSLAX34Y34*%
G04 Gerber Fmt 3.4, Leading zero omitted, Abs format*
G04 (created by PCBNEW (2014-03-16 BZR 4752)-product) date Mon 17 Mar 2014 04:29:41 PM CET*
%MOIN*%
G01*
G70*
G90*
G04 APERTURE LIST*
%ADD10C,0.005906*%
%ADD11C,0.009843*%
%ADD12C,0.007874*%
%ADD13R,0.064961X0.064961*%
%ADD14C,0.013000*%
%ADD15C,0.040000*%
G04 APERTURE END LIST*
G54D10*
G54D11*
X56987Y-37513D02*
X56717Y-37513D01*
X56852Y-37513D02*
X56852Y-37041D01*
X56807Y-37108D01*
X56762Y-37153D01*
X56717Y-37176D01*
X57280Y-37041D02*
X57325Y-37041D01*
X57370Y-37063D01*
X57392Y-37086D01*
X57415Y-37131D01*
X57437Y-37221D01*
X57437Y-37333D01*
X57415Y-37423D01*
X57392Y-37468D01*
X57370Y-37491D01*
X57325Y-37513D01*
X57280Y-37513D01*
X57235Y-37491D01*
X57212Y-37468D01*
X57190Y-37423D01*
X57167Y-37333D01*
X57167Y-37221D01*
X57190Y-37131D01*
X57212Y-37086D01*
X57235Y-37063D01*
X57280Y-37041D01*
X57639Y-37468D02*
X57662Y-37491D01*
X57639Y-37513D01*
X57617Y-37491D01*
X57639Y-37468D01*
X57639Y-37513D01*
X57864Y-37468D02*
X57887Y-37491D01*
X57864Y-37513D01*
X57842Y-37491D01*
X57864Y-37468D01*
X57864Y-37513D01*
X58089Y-37468D02*
X58112Y-37491D01*
X58089Y-37513D01*
X58067Y-37491D01*
X58089Y-37468D01*
X58089Y-37513D01*
X58517Y-37041D02*
X58427Y-37041D01*
X58382Y-37063D01*
X58359Y-37086D01*
X58314Y-37153D01*
X58292Y-37243D01*
X58292Y-37423D01*
X58314Y-37468D01*
X58337Y-37491D01*
X58382Y-37513D01*
X58472Y-37513D01*
X58517Y-37491D01*
X58539Y-37468D01*
X58562Y-37423D01*
X58562Y-37311D01*
X58539Y-37266D01*
X58517Y-37243D01*
X58472Y-37221D01*
X58382Y-37221D01*
X58337Y-37243D01*
X58314Y-37266D01*
X58292Y-37311D01*
X57272Y-42523D02*
X57002Y-42523D01*
X57137Y-42523D02*
X57137Y-42051D01*
X57092Y-42118D01*
X57047Y-42163D01*
X57002Y-42186D01*
X57475Y-42478D02*
X57497Y-42501D01*
X57475Y-42523D01*
X57452Y-42501D01*
X57475Y-42478D01*
X57475Y-42523D01*
X57700Y-42478D02*
X57722Y-42501D01*
X57700Y-42523D01*
X57677Y-42501D01*
X57700Y-42478D01*
X57700Y-42523D01*
X57924Y-42478D02*
X57947Y-42501D01*
X57924Y-42523D01*
X57902Y-42501D01*
X57924Y-42478D01*
X57924Y-42523D01*
X58374Y-42051D02*
X58149Y-42051D01*
X58127Y-42276D01*
X58149Y-42253D01*
X58194Y-42231D01*
X58307Y-42231D01*
X58352Y-42253D01*
X58374Y-42276D01*
X58397Y-42321D01*
X58397Y-42433D01*
X58374Y-42478D01*
X58352Y-42501D01*
X58307Y-42523D01*
X58194Y-42523D01*
X58149Y-42501D01*
X58127Y-42478D01*
G54D12*
X56895Y-40690D02*
G75*
G03X56895Y-40690I-85J0D01*
G74*
G01*
G54D11*
X56686Y-41463D02*
X56686Y-40991D01*
X56798Y-40991D01*
X56866Y-41013D01*
X56911Y-41058D01*
X56933Y-41103D01*
X56956Y-41193D01*
X56956Y-41261D01*
X56933Y-41351D01*
X56911Y-41396D01*
X56866Y-41441D01*
X56798Y-41463D01*
X56686Y-41463D01*
X57316Y-41216D02*
X57158Y-41216D01*
X57158Y-41463D02*
X57158Y-40991D01*
X57383Y-40991D01*
X57563Y-41463D02*
X57563Y-40991D01*
X57833Y-41463D01*
X57833Y-40991D01*
X58306Y-41463D02*
X58036Y-41463D01*
X58171Y-41463D02*
X58171Y-40991D01*
X58126Y-41058D01*
X58081Y-41103D01*
X58036Y-41126D01*
X58598Y-40991D02*
X58643Y-40991D01*
X58688Y-41013D01*
X58711Y-41036D01*
X58733Y-41081D01*
X58756Y-41171D01*
X58756Y-41283D01*
X58733Y-41373D01*
X58711Y-41418D01*
X58688Y-41441D01*
X58643Y-41463D01*
X58598Y-41463D01*
X58553Y-41441D01*
X58531Y-41418D01*
X58508Y-41373D01*
X58486Y-41283D01*
X58486Y-41171D01*
X58508Y-41081D01*
X58531Y-41036D01*
X58553Y-41013D01*
X58598Y-40991D01*
X56316Y-38568D02*
X56541Y-38568D01*
X56271Y-38703D02*
X56428Y-38231D01*
X56586Y-38703D01*
X56676Y-38231D02*
X56946Y-38231D01*
X56811Y-38703D02*
X56811Y-38231D01*
X57036Y-38388D02*
X57216Y-38388D01*
X57103Y-38231D02*
X57103Y-38636D01*
X57126Y-38681D01*
X57171Y-38703D01*
X57216Y-38703D01*
X57373Y-38703D02*
X57373Y-38388D01*
X57373Y-38231D02*
X57351Y-38253D01*
X57373Y-38276D01*
X57396Y-38253D01*
X57373Y-38231D01*
X57373Y-38276D01*
X57598Y-38388D02*
X57598Y-38703D01*
X57598Y-38433D02*
X57621Y-38411D01*
X57666Y-38388D01*
X57733Y-38388D01*
X57778Y-38411D01*
X57801Y-38456D01*
X57801Y-38703D01*
X57981Y-38388D02*
X58093Y-38703D01*
X58206Y-38388D02*
X58093Y-38703D01*
X58048Y-38816D01*
X58026Y-38838D01*
X57981Y-38861D01*
X58633Y-38703D02*
X58363Y-38703D01*
X58498Y-38703D02*
X58498Y-38231D01*
X58453Y-38298D01*
X58408Y-38343D01*
X58363Y-38366D01*
X58791Y-38231D02*
X59083Y-38231D01*
X58926Y-38411D01*
X58993Y-38411D01*
X59038Y-38433D01*
X59061Y-38456D01*
X59083Y-38501D01*
X59083Y-38613D01*
X59061Y-38658D01*
X59038Y-38681D01*
X58993Y-38703D01*
X58858Y-38703D01*
X58813Y-38681D01*
X58791Y-38658D01*
G54D12*
X55200Y-36600D02*
X60200Y-36600D01*
X60200Y-36600D02*
X60200Y-43000D01*
X60200Y-43000D02*
X55200Y-43000D01*
X55200Y-43000D02*
X55200Y-36600D01*
X57109Y-40390D02*
X57109Y-39209D01*
X57109Y-39209D02*
X58290Y-39209D01*
X58290Y-39209D02*
X58290Y-40390D01*
X58290Y-40390D02*
X57109Y-40390D01*
X55200Y-42800D02*
X56200Y-42800D01*
X55200Y-41800D02*
X56200Y-41800D01*
X56200Y-41800D02*
X56200Y-42800D01*
X55200Y-42800D02*
X55200Y-41800D01*
%LPC*%
G54D13*
X59700Y-42300D03*
X59700Y-37300D03*
X55700Y-37300D03*
G54D14*
X57270Y-40070D03*
X57270Y-39530D03*
X57270Y-39800D03*
X58140Y-39800D03*
X58140Y-39530D03*
X58140Y-40070D03*
X57430Y-40240D03*
X57970Y-40240D03*
X57700Y-40240D03*
X57700Y-39360D03*
X57970Y-39360D03*
X57430Y-39360D03*
G54D15*
X57110Y-40390D03*
X58290Y-40390D03*
X58290Y-39210D03*
X57110Y-39210D03*
G54D13*
X55700Y-42300D03*
M02*
