M48
INCH,TZ
T1C0.020
T2C0.040
%
G90
G05
T1
X062000Y-037500
X062000Y-042500
X065700Y-039940
X066000Y-037500
X066000Y-042500
T2
X062000Y-036000
X062000Y-044000
X063000Y-036000
X063000Y-044000
X064000Y-036000
X064000Y-044000
X065000Y-036000
X065000Y-044000
X066000Y-036000
X066000Y-044000
X067600Y-039000
X067600Y-040000
X067600Y-041000
X068600Y-039000
X068600Y-040000
X068600Y-041000
T0
M30
