%FSLAX34Y34*%
G04 Gerber Fmt 3.4, Leading zero omitted, Abs format*
G04 (created by PCBNEW (2014-03-14 BZR 4750)-product) date Mon 17 Mar 2014 06:19:06 PM CET*
%MOIN*%
G01*
G70*
G90*
G04 APERTURE LIST*
%ADD10C,0.005906*%
%ADD11R,0.009843X0.039370*%
%ADD12C,0.064961*%
%ADD13R,0.064961X0.064961*%
%ADD14R,0.065000X0.065000*%
%ADD15C,0.065000*%
%ADD16C,0.035000*%
%ADD17C,0.010000*%
G04 APERTURE END LIST*
G54D10*
G54D11*
X63606Y-40590D03*
X63803Y-40590D03*
X64000Y-40590D03*
X64196Y-40590D03*
X64393Y-40590D03*
X64393Y-39409D03*
X64196Y-39409D03*
X64000Y-39409D03*
X63803Y-39409D03*
X63606Y-39409D03*
G54D12*
X66000Y-36000D03*
X65000Y-36000D03*
X64000Y-36000D03*
X63000Y-36000D03*
X62000Y-36000D03*
G54D13*
X66000Y-42500D03*
X66000Y-37500D03*
X62000Y-37500D03*
G54D14*
X67600Y-39000D03*
G54D15*
X68600Y-39000D03*
X67600Y-40000D03*
X68600Y-40000D03*
X67600Y-41000D03*
X68600Y-41000D03*
G54D13*
X62000Y-44000D03*
G54D12*
X63000Y-44000D03*
X64000Y-44000D03*
X65000Y-44000D03*
X66000Y-44000D03*
G54D13*
X62000Y-42500D03*
G54D16*
X65700Y-39940D03*
G54D17*
X63606Y-40590D02*
X63606Y-42393D01*
X63606Y-42393D02*
X62000Y-44000D01*
X68600Y-39000D02*
X68600Y-38600D01*
X67380Y-38260D02*
X65700Y-39940D01*
X68260Y-38260D02*
X67380Y-38260D01*
X68600Y-38600D02*
X68260Y-38260D01*
X63606Y-39409D02*
X63606Y-37606D01*
X63606Y-37606D02*
X62000Y-36000D01*
X63803Y-39409D02*
X63803Y-36803D01*
X63803Y-36803D02*
X63000Y-36000D01*
X64196Y-39409D02*
X64196Y-36803D01*
X64196Y-36803D02*
X65000Y-36000D01*
X64393Y-40590D02*
X64393Y-42393D01*
X64393Y-42393D02*
X66000Y-44000D01*
X64393Y-39409D02*
X64393Y-37606D01*
X64393Y-37606D02*
X66000Y-36000D01*
X63803Y-40590D02*
X63803Y-43196D01*
X63803Y-43196D02*
X63000Y-44000D01*
X64196Y-40590D02*
X64196Y-43196D01*
X64196Y-43196D02*
X65000Y-44000D01*
M02*
