M48
INCH,TZ
T1C0.013
T2C0.020
T3C0.040
%
G90
G05
T1
X057270Y-039530
X057270Y-039800
X057270Y-040070
X057430Y-039360
X057430Y-040240
X057700Y-039360
X057700Y-040240
X057970Y-039360
X057970Y-040240
X058140Y-039530
X058140Y-039800
X058140Y-040070
T2
X055700Y-037300
X055700Y-042300
X059700Y-037300
X059700Y-042300
T3
X057110Y-039210
X057110Y-040390
X058290Y-039210
X058290Y-040390
T0
M30
