%FSLAX34Y34*%
G04 Gerber Fmt 3.4, Leading zero omitted, Abs format*
G04 (created by PCBNEW (2014-04-04 BZR 4786)-product) date Sat 05 Apr 2014 06:47:19 PM CEST*
%MOIN*%
G01*
G70*
G90*
G04 APERTURE LIST*
%ADD10C,0.005906*%
%ADD11C,0.009843*%
%ADD12C,0.040000*%
%ADD13C,0.064961*%
%ADD14R,0.064961X0.064961*%
%ADD15R,0.065000X0.065000*%
%ADD16C,0.065000*%
G04 APERTURE END LIST*
G54D10*
G54D11*
X62721Y-37740D02*
X62721Y-37927D01*
X62834Y-37702D02*
X62440Y-37834D01*
X62834Y-37965D01*
X62440Y-38040D02*
X62440Y-38265D01*
X62834Y-38152D02*
X62440Y-38152D01*
X62571Y-38340D02*
X62571Y-38490D01*
X62440Y-38396D02*
X62777Y-38396D01*
X62815Y-38415D01*
X62834Y-38452D01*
X62834Y-38490D01*
X62834Y-38621D02*
X62571Y-38621D01*
X62440Y-38621D02*
X62459Y-38602D01*
X62477Y-38621D01*
X62459Y-38640D01*
X62440Y-38621D01*
X62477Y-38621D01*
X62571Y-38808D02*
X62834Y-38808D01*
X62609Y-38808D02*
X62590Y-38827D01*
X62571Y-38865D01*
X62571Y-38921D01*
X62590Y-38958D01*
X62627Y-38977D01*
X62834Y-38977D01*
X62571Y-39127D02*
X62834Y-39221D01*
X62571Y-39315D02*
X62834Y-39221D01*
X62927Y-39183D01*
X62946Y-39165D01*
X62965Y-39127D01*
X62834Y-39671D02*
X62834Y-39446D01*
X62834Y-39558D02*
X62440Y-39558D01*
X62496Y-39521D01*
X62534Y-39483D01*
X62552Y-39446D01*
X62440Y-39802D02*
X62440Y-40046D01*
X62590Y-39915D01*
X62590Y-39971D01*
X62609Y-40008D01*
X62627Y-40027D01*
X62665Y-40046D01*
X62759Y-40046D01*
X62796Y-40027D01*
X62815Y-40008D01*
X62834Y-39971D01*
X62834Y-39858D01*
X62815Y-39821D01*
X62796Y-39802D01*
X62834Y-40514D02*
X62440Y-40514D01*
X62440Y-40608D01*
X62459Y-40664D01*
X62496Y-40702D01*
X62534Y-40721D01*
X62609Y-40739D01*
X62665Y-40739D01*
X62740Y-40721D01*
X62777Y-40702D01*
X62815Y-40664D01*
X62834Y-40608D01*
X62834Y-40514D01*
X62627Y-41039D02*
X62627Y-40908D01*
X62834Y-40908D02*
X62440Y-40908D01*
X62440Y-41096D01*
X62834Y-41246D02*
X62440Y-41246D01*
X62834Y-41471D01*
X62440Y-41471D01*
X62834Y-41864D02*
X62834Y-41639D01*
X62834Y-41752D02*
X62440Y-41752D01*
X62496Y-41714D01*
X62534Y-41677D01*
X62552Y-41639D01*
X62440Y-42108D02*
X62440Y-42145D01*
X62459Y-42183D01*
X62477Y-42202D01*
X62515Y-42220D01*
X62590Y-42239D01*
X62684Y-42239D01*
X62759Y-42220D01*
X62796Y-42202D01*
X62815Y-42183D01*
X62834Y-42145D01*
X62834Y-42108D01*
X62815Y-42070D01*
X62796Y-42052D01*
X62759Y-42033D01*
X62684Y-42014D01*
X62590Y-42014D01*
X62515Y-42033D01*
X62477Y-42052D01*
X62459Y-42070D01*
X62440Y-42108D01*
X63221Y-36887D02*
X63614Y-36887D01*
X63239Y-36887D02*
X63221Y-36924D01*
X63221Y-36999D01*
X63239Y-37037D01*
X63258Y-37055D01*
X63296Y-37074D01*
X63408Y-37074D01*
X63446Y-37055D01*
X63464Y-37037D01*
X63483Y-36999D01*
X63483Y-36924D01*
X63464Y-36887D01*
X63483Y-37243D02*
X63221Y-37243D01*
X63296Y-37243D02*
X63258Y-37262D01*
X63239Y-37280D01*
X63221Y-37318D01*
X63221Y-37355D01*
X63483Y-37543D02*
X63464Y-37505D01*
X63446Y-37487D01*
X63408Y-37468D01*
X63296Y-37468D01*
X63258Y-37487D01*
X63239Y-37505D01*
X63221Y-37543D01*
X63221Y-37599D01*
X63239Y-37637D01*
X63258Y-37655D01*
X63296Y-37674D01*
X63408Y-37674D01*
X63446Y-37655D01*
X63464Y-37637D01*
X63483Y-37599D01*
X63483Y-37543D01*
X63221Y-38012D02*
X63539Y-38012D01*
X63577Y-37993D01*
X63596Y-37974D01*
X63614Y-37937D01*
X63614Y-37880D01*
X63596Y-37843D01*
X63464Y-38012D02*
X63483Y-37974D01*
X63483Y-37899D01*
X63464Y-37862D01*
X63446Y-37843D01*
X63408Y-37824D01*
X63296Y-37824D01*
X63258Y-37843D01*
X63239Y-37862D01*
X63221Y-37899D01*
X63221Y-37974D01*
X63239Y-38012D01*
X63483Y-38199D02*
X63221Y-38199D01*
X63296Y-38199D02*
X63258Y-38218D01*
X63239Y-38237D01*
X63221Y-38274D01*
X63221Y-38312D01*
X63483Y-38612D02*
X63277Y-38612D01*
X63239Y-38593D01*
X63221Y-38555D01*
X63221Y-38480D01*
X63239Y-38443D01*
X63464Y-38612D02*
X63483Y-38574D01*
X63483Y-38480D01*
X63464Y-38443D01*
X63427Y-38424D01*
X63389Y-38424D01*
X63352Y-38443D01*
X63333Y-38480D01*
X63333Y-38574D01*
X63314Y-38612D01*
X63483Y-38799D02*
X63221Y-38799D01*
X63258Y-38799D02*
X63239Y-38818D01*
X63221Y-38855D01*
X63221Y-38912D01*
X63239Y-38949D01*
X63277Y-38968D01*
X63483Y-38968D01*
X63277Y-38968D02*
X63239Y-38987D01*
X63221Y-39024D01*
X63221Y-39080D01*
X63239Y-39118D01*
X63277Y-39136D01*
X63483Y-39136D01*
X63483Y-39324D02*
X63221Y-39324D01*
X63258Y-39324D02*
X63239Y-39343D01*
X63221Y-39380D01*
X63221Y-39436D01*
X63239Y-39474D01*
X63277Y-39493D01*
X63483Y-39493D01*
X63277Y-39493D02*
X63239Y-39511D01*
X63221Y-39549D01*
X63221Y-39605D01*
X63239Y-39643D01*
X63277Y-39661D01*
X63483Y-39661D01*
X63483Y-39849D02*
X63221Y-39849D01*
X63089Y-39849D02*
X63108Y-39830D01*
X63127Y-39849D01*
X63108Y-39868D01*
X63089Y-39849D01*
X63127Y-39849D01*
X63221Y-40036D02*
X63483Y-40036D01*
X63258Y-40036D02*
X63239Y-40055D01*
X63221Y-40093D01*
X63221Y-40149D01*
X63239Y-40186D01*
X63277Y-40205D01*
X63483Y-40205D01*
X63221Y-40561D02*
X63539Y-40561D01*
X63577Y-40543D01*
X63596Y-40524D01*
X63614Y-40486D01*
X63614Y-40430D01*
X63596Y-40393D01*
X63464Y-40561D02*
X63483Y-40524D01*
X63483Y-40449D01*
X63464Y-40411D01*
X63446Y-40393D01*
X63408Y-40374D01*
X63296Y-40374D01*
X63258Y-40393D01*
X63239Y-40411D01*
X63221Y-40449D01*
X63221Y-40524D01*
X63239Y-40561D01*
X63483Y-41217D02*
X63277Y-41217D01*
X63239Y-41199D01*
X63221Y-41161D01*
X63221Y-41086D01*
X63239Y-41049D01*
X63464Y-41217D02*
X63483Y-41180D01*
X63483Y-41086D01*
X63464Y-41049D01*
X63427Y-41030D01*
X63389Y-41030D01*
X63352Y-41049D01*
X63333Y-41086D01*
X63333Y-41180D01*
X63314Y-41217D01*
X63483Y-41574D02*
X63089Y-41574D01*
X63464Y-41574D02*
X63483Y-41536D01*
X63483Y-41461D01*
X63464Y-41424D01*
X63446Y-41405D01*
X63408Y-41386D01*
X63296Y-41386D01*
X63258Y-41405D01*
X63239Y-41424D01*
X63221Y-41461D01*
X63221Y-41536D01*
X63239Y-41574D01*
X63483Y-41930D02*
X63277Y-41930D01*
X63239Y-41911D01*
X63221Y-41874D01*
X63221Y-41799D01*
X63239Y-41761D01*
X63464Y-41930D02*
X63483Y-41892D01*
X63483Y-41799D01*
X63464Y-41761D01*
X63427Y-41742D01*
X63389Y-41742D01*
X63352Y-41761D01*
X63333Y-41799D01*
X63333Y-41892D01*
X63314Y-41930D01*
X63221Y-42117D02*
X63614Y-42117D01*
X63239Y-42117D02*
X63221Y-42155D01*
X63221Y-42230D01*
X63239Y-42267D01*
X63258Y-42286D01*
X63296Y-42305D01*
X63408Y-42305D01*
X63446Y-42286D01*
X63464Y-42267D01*
X63483Y-42230D01*
X63483Y-42155D01*
X63464Y-42117D01*
X63221Y-42417D02*
X63221Y-42567D01*
X63089Y-42474D02*
X63427Y-42474D01*
X63464Y-42492D01*
X63483Y-42530D01*
X63483Y-42567D01*
X63464Y-42849D02*
X63483Y-42811D01*
X63483Y-42736D01*
X63464Y-42699D01*
X63427Y-42680D01*
X63277Y-42680D01*
X63239Y-42699D01*
X63221Y-42736D01*
X63221Y-42811D01*
X63239Y-42849D01*
X63277Y-42867D01*
X63314Y-42867D01*
X63352Y-42680D01*
X63483Y-43036D02*
X63221Y-43036D01*
X63296Y-43036D02*
X63258Y-43055D01*
X63239Y-43073D01*
X63221Y-43111D01*
X63221Y-43148D01*
X64389Y-38940D02*
X64782Y-39071D01*
X64389Y-39202D01*
X64389Y-39408D02*
X64389Y-39446D01*
X64407Y-39483D01*
X64426Y-39502D01*
X64464Y-39521D01*
X64539Y-39540D01*
X64632Y-39540D01*
X64707Y-39521D01*
X64745Y-39502D01*
X64764Y-39483D01*
X64782Y-39446D01*
X64782Y-39408D01*
X64764Y-39371D01*
X64745Y-39352D01*
X64707Y-39333D01*
X64632Y-39315D01*
X64539Y-39315D01*
X64464Y-39333D01*
X64426Y-39352D01*
X64407Y-39371D01*
X64389Y-39408D01*
X64745Y-39708D02*
X64764Y-39727D01*
X64782Y-39708D01*
X64764Y-39690D01*
X64745Y-39708D01*
X64782Y-39708D01*
X64782Y-40102D02*
X64782Y-39877D01*
X64782Y-39990D02*
X64389Y-39990D01*
X64445Y-39952D01*
X64482Y-39915D01*
X64501Y-39877D01*
X64389Y-40346D02*
X64389Y-40383D01*
X64407Y-40421D01*
X64426Y-40439D01*
X64464Y-40458D01*
X64539Y-40477D01*
X64632Y-40477D01*
X64707Y-40458D01*
X64745Y-40439D01*
X64764Y-40421D01*
X64782Y-40383D01*
X64782Y-40346D01*
X64764Y-40308D01*
X64745Y-40289D01*
X64707Y-40271D01*
X64632Y-40252D01*
X64539Y-40252D01*
X64464Y-40271D01*
X64426Y-40289D01*
X64407Y-40308D01*
X64389Y-40346D01*
X64745Y-40646D02*
X64764Y-40664D01*
X64782Y-40646D01*
X64764Y-40627D01*
X64745Y-40646D01*
X64782Y-40646D01*
X64764Y-41002D02*
X64782Y-40964D01*
X64782Y-40889D01*
X64764Y-40852D01*
X64745Y-40833D01*
X64707Y-40814D01*
X64595Y-40814D01*
X64557Y-40833D01*
X64539Y-40852D01*
X64520Y-40889D01*
X64520Y-40964D01*
X64539Y-41002D01*
X65432Y-37074D02*
X65038Y-37074D01*
X65188Y-37074D02*
X65170Y-37112D01*
X65170Y-37187D01*
X65188Y-37224D01*
X65207Y-37243D01*
X65245Y-37262D01*
X65357Y-37262D01*
X65395Y-37243D01*
X65413Y-37224D01*
X65432Y-37187D01*
X65432Y-37112D01*
X65413Y-37074D01*
X65432Y-37487D02*
X65413Y-37449D01*
X65376Y-37430D01*
X65038Y-37430D01*
X65432Y-37693D02*
X65413Y-37655D01*
X65395Y-37637D01*
X65357Y-37618D01*
X65245Y-37618D01*
X65207Y-37637D01*
X65188Y-37655D01*
X65170Y-37693D01*
X65170Y-37749D01*
X65188Y-37787D01*
X65207Y-37805D01*
X65245Y-37824D01*
X65357Y-37824D01*
X65395Y-37805D01*
X65413Y-37787D01*
X65432Y-37749D01*
X65432Y-37693D01*
X65170Y-38162D02*
X65488Y-38162D01*
X65526Y-38143D01*
X65544Y-38124D01*
X65563Y-38087D01*
X65563Y-38030D01*
X65544Y-37993D01*
X65413Y-38162D02*
X65432Y-38124D01*
X65432Y-38049D01*
X65413Y-38012D01*
X65395Y-37993D01*
X65357Y-37974D01*
X65245Y-37974D01*
X65207Y-37993D01*
X65188Y-38012D01*
X65170Y-38049D01*
X65170Y-38124D01*
X65188Y-38162D01*
X65395Y-38349D02*
X65413Y-38368D01*
X65432Y-38349D01*
X65413Y-38330D01*
X65395Y-38349D01*
X65432Y-38349D01*
X65413Y-38518D02*
X65432Y-38555D01*
X65432Y-38630D01*
X65413Y-38668D01*
X65376Y-38687D01*
X65357Y-38687D01*
X65320Y-38668D01*
X65301Y-38630D01*
X65301Y-38574D01*
X65282Y-38537D01*
X65245Y-38518D01*
X65226Y-38518D01*
X65188Y-38537D01*
X65170Y-38574D01*
X65170Y-38630D01*
X65188Y-38668D01*
X65170Y-38855D02*
X65563Y-38855D01*
X65188Y-38855D02*
X65170Y-38893D01*
X65170Y-38968D01*
X65188Y-39005D01*
X65207Y-39024D01*
X65245Y-39043D01*
X65357Y-39043D01*
X65395Y-39024D01*
X65413Y-39005D01*
X65432Y-38968D01*
X65432Y-38893D01*
X65413Y-38855D01*
X65432Y-39211D02*
X65170Y-39211D01*
X65038Y-39211D02*
X65057Y-39193D01*
X65076Y-39211D01*
X65057Y-39230D01*
X65038Y-39211D01*
X65076Y-39211D01*
X65170Y-39343D02*
X65170Y-39493D01*
X65038Y-39399D02*
X65376Y-39399D01*
X65413Y-39418D01*
X65432Y-39455D01*
X65432Y-39493D01*
X65170Y-39586D02*
X65170Y-39793D01*
X65432Y-39586D01*
X65432Y-39793D01*
X65413Y-40093D02*
X65432Y-40055D01*
X65432Y-39980D01*
X65413Y-39943D01*
X65376Y-39924D01*
X65226Y-39924D01*
X65188Y-39943D01*
X65170Y-39980D01*
X65170Y-40055D01*
X65188Y-40093D01*
X65226Y-40111D01*
X65263Y-40111D01*
X65301Y-39924D01*
X65170Y-40280D02*
X65432Y-40280D01*
X65207Y-40280D02*
X65188Y-40299D01*
X65170Y-40336D01*
X65170Y-40393D01*
X65188Y-40430D01*
X65226Y-40449D01*
X65432Y-40449D01*
X65170Y-40636D02*
X65563Y-40636D01*
X65188Y-40636D02*
X65170Y-40674D01*
X65170Y-40749D01*
X65188Y-40786D01*
X65207Y-40805D01*
X65245Y-40824D01*
X65357Y-40824D01*
X65395Y-40805D01*
X65413Y-40786D01*
X65432Y-40749D01*
X65432Y-40674D01*
X65413Y-40636D01*
X65170Y-40936D02*
X65170Y-41086D01*
X65432Y-40992D02*
X65095Y-40992D01*
X65057Y-41011D01*
X65038Y-41049D01*
X65038Y-41086D01*
X65413Y-41367D02*
X65432Y-41330D01*
X65432Y-41255D01*
X65413Y-41217D01*
X65376Y-41199D01*
X65226Y-41199D01*
X65188Y-41217D01*
X65170Y-41255D01*
X65170Y-41330D01*
X65188Y-41367D01*
X65226Y-41386D01*
X65263Y-41386D01*
X65301Y-41199D01*
X65432Y-41555D02*
X65170Y-41555D01*
X65038Y-41555D02*
X65057Y-41536D01*
X65076Y-41555D01*
X65057Y-41574D01*
X65038Y-41555D01*
X65076Y-41555D01*
X65432Y-41799D02*
X65413Y-41761D01*
X65376Y-41742D01*
X65038Y-41742D01*
X65395Y-41949D02*
X65413Y-41967D01*
X65432Y-41949D01*
X65413Y-41930D01*
X65395Y-41949D01*
X65432Y-41949D01*
X65432Y-42192D02*
X65413Y-42155D01*
X65395Y-42136D01*
X65357Y-42117D01*
X65245Y-42117D01*
X65207Y-42136D01*
X65188Y-42155D01*
X65170Y-42192D01*
X65170Y-42249D01*
X65188Y-42286D01*
X65207Y-42305D01*
X65245Y-42324D01*
X65357Y-42324D01*
X65395Y-42305D01*
X65413Y-42286D01*
X65432Y-42249D01*
X65432Y-42192D01*
X65432Y-42492D02*
X65170Y-42492D01*
X65245Y-42492D02*
X65207Y-42511D01*
X65188Y-42530D01*
X65170Y-42567D01*
X65170Y-42605D01*
X65170Y-42905D02*
X65488Y-42905D01*
X65526Y-42886D01*
X65544Y-42867D01*
X65563Y-42830D01*
X65563Y-42774D01*
X65544Y-42736D01*
X65413Y-42905D02*
X65432Y-42867D01*
X65432Y-42792D01*
X65413Y-42755D01*
X65395Y-42736D01*
X65357Y-42717D01*
X65245Y-42717D01*
X65207Y-42736D01*
X65188Y-42755D01*
X65170Y-42792D01*
X65170Y-42867D01*
X65188Y-42905D01*
X65725Y-39315D02*
X65707Y-39333D01*
X65688Y-39371D01*
X65688Y-39465D01*
X65707Y-39502D01*
X65725Y-39521D01*
X65763Y-39540D01*
X65800Y-39540D01*
X65857Y-39521D01*
X66082Y-39296D01*
X66082Y-39540D01*
X65688Y-39783D02*
X65688Y-39821D01*
X65707Y-39858D01*
X65725Y-39877D01*
X65763Y-39896D01*
X65838Y-39915D01*
X65932Y-39915D01*
X66007Y-39896D01*
X66044Y-39877D01*
X66063Y-39858D01*
X66082Y-39821D01*
X66082Y-39783D01*
X66063Y-39746D01*
X66044Y-39727D01*
X66007Y-39708D01*
X65932Y-39690D01*
X65838Y-39690D01*
X65763Y-39708D01*
X65725Y-39727D01*
X65707Y-39746D01*
X65688Y-39783D01*
X66082Y-40289D02*
X66082Y-40064D01*
X66082Y-40177D02*
X65688Y-40177D01*
X65744Y-40139D01*
X65782Y-40102D01*
X65800Y-40064D01*
X65819Y-40627D02*
X66082Y-40627D01*
X65669Y-40533D02*
X65950Y-40439D01*
X65950Y-40683D01*
%LPC*%
G54D12*
X64000Y-40000D03*
G54D13*
X66000Y-36000D03*
X65000Y-36000D03*
X64000Y-36000D03*
X63000Y-36000D03*
X62000Y-36000D03*
G54D14*
X66000Y-42500D03*
X66000Y-37500D03*
X62000Y-37500D03*
G54D15*
X67600Y-39000D03*
G54D16*
X68600Y-39000D03*
X67600Y-40000D03*
X68600Y-40000D03*
X67600Y-41000D03*
X68600Y-41000D03*
G54D14*
X62000Y-44000D03*
G54D13*
X63000Y-44000D03*
X64000Y-44000D03*
X65000Y-44000D03*
X66000Y-44000D03*
G54D14*
X62000Y-42500D03*
M02*
